<svg width="40" height="40" viewBox="0 0 40 40" fill="none" xmlns="http://www.w3.org/2000/svg">
<path d="M29.8333 28.9833C29.4 27.65 28.15 26.6667 26.6667 26.6667H25V21.6667C25 21.2246 24.8244 20.8007 24.5118 20.4882C24.1993 20.1756 23.7754 20 23.3333 20H13.3333V16.6667H16.6667C17.1087 16.6667 17.5326 16.4911 17.8452 16.1785C18.1577 15.8659 18.3333 15.442 18.3333 15V11.6667H21.6667C22.5507 11.6667 23.3986 11.3155 24.0237 10.6904C24.6488 10.0652 25 9.21738 25 8.33333V7.65C26.9941 8.45394 28.7637 9.72912 30.1574 11.3664C31.551 13.0037 32.5271 14.9542 33.0022 17.0512C33.4773 19.1481 33.4372 21.329 32.8853 23.407C32.3334 25.485 31.2862 27.3984 29.8333 28.9833ZM18.3333 33.2167C11.75 32.4 6.66666 26.8 6.66666 20C6.66666 18.9667 6.79999 17.9667 7.01666 17.0167L15 25V26.6667C15 27.5507 15.3512 28.3986 15.9763 29.0237C16.6014 29.6488 17.4493 30 18.3333 30M20 3.33333C17.8113 3.33333 15.644 3.76442 13.6219 4.602C11.5998 5.43958 9.76252 6.66724 8.21488 8.21488C5.08928 11.3405 3.33333 15.5797 3.33333 20C3.33333 24.4203 5.08928 28.6595 8.21488 31.7851C9.76252 33.3328 11.5998 34.5604 13.6219 35.398C15.644 36.2356 17.8113 36.6667 20 36.6667C24.4203 36.6667 28.6595 34.9107 31.7851 31.7851C34.9107 28.6595 36.6667 24.4203 36.6667 20C36.6667 17.8113 36.2356 15.644 35.398 13.6219C34.5604 11.5998 33.3328 9.76252 31.7851 8.21488C30.2375 6.66724 28.4001 5.43958 26.3781 4.602C24.356 3.76442 22.1887 3.33333 20 3.33333Z" fill="white"/>
</svg>
