<svg width="40" height="40" viewBox="0 0 40 40" fill="none" xmlns="http://www.w3.org/2000/svg">
<path d="M20 3.125C16.6624 3.125 13.3998 4.1147 10.6248 5.96895C7.84968 7.8232 5.68677 10.4587 4.40954 13.5422C3.13231 16.6257 2.79813 20.0187 3.44926 23.2921C4.10038 26.5656 5.70757 29.5724 8.06758 31.9324C10.4276 34.2924 13.4344 35.8996 16.7079 36.5508C19.9813 37.2019 23.3743 36.8677 26.4578 35.5905C29.5413 34.3132 32.1768 32.1503 34.0311 29.3752C35.8853 26.6002 36.875 23.3376 36.875 20C36.87 15.526 35.0906 11.2367 31.927 8.07305C28.7634 4.90945 24.474 3.12996 20 3.125ZM9.37501 27.7C8.12455 25.9797 7.31303 23.9802 7.01095 21.875H11.7406C11.4412 23.9811 10.6288 25.9814 9.37501 27.7ZM7.01095 18.125C7.31303 16.0198 8.12455 14.0203 9.37501 12.3C10.6288 14.0186 11.4412 16.0189 11.7406 18.125H7.01095ZM18.125 32.9891C15.9068 32.6685 13.8083 31.7829 12.0313 30.4172C13.9736 27.9539 15.1832 24.9936 15.5219 21.875H18.125V32.9891ZM18.125 18.125H15.5219C15.1832 15.0064 13.9736 12.0461 12.0313 9.58281C13.8083 8.21712 15.9068 7.33145 18.125 7.01094V18.125ZM30.625 12.3C31.8755 14.0203 32.687 16.0198 32.9891 18.125H28.2594C28.5588 16.0189 29.3712 14.0186 30.625 12.3ZM21.875 32.9891V21.875H24.4781C24.8168 24.9936 26.0264 27.9539 27.9688 30.4172C26.1917 31.7829 24.0932 32.6685 21.875 32.9891ZM24.4781 18.125H21.875V7.01094C24.0932 7.33145 26.1917 8.21712 27.9688 9.58281C26.0264 12.0461 24.8168 15.0064 24.4781 18.125ZM30.625 27.7C29.3712 25.9814 28.5588 23.9811 28.2594 21.875H32.9891C32.687 23.9802 31.8755 25.9797 30.625 27.7Z" fill="white"/>
</svg>
