<svg width="200" height="200" viewBox="0 0 200 200" fill="none" xmlns="http://www.w3.org/2000/svg">
<g clip-path="url(#clip0_2_244)">
<mask id="mask0_2_244" style="mask-type:luminance" maskUnits="userSpaceOnUse" x="0" y="0" width="200" height="200">
<path d="M200 0H0V200H200V0Z" fill="white"/>
</mask>
<g mask="url(#mask0_2_244)">
<path d="M38.0833 55.1944L93.2778 0L95.25 1.97222L36.9444 60.25C37.5 58.6389 37.8889 56.9722 38.0833 55.1944ZM50.0278 22.0278L70.0833 1.97222L68.1389 0L48.1944 19.9444C49 20.5833 49.6111 21.2778 50.0278 22.0278ZM30.25 53.75C31.2222 40.0278 33.3333 35.4444 37.9722 29.8056C40.6667 26.5278 42.4167 22.7222 43.1389 19.9722C43 19.9167 42.8889 19.8611 42.75 19.7778C37.8056 17.6111 33.5 16.1667 30.1944 15.5C26.6667 14.8333 24.9167 14.6389 23.8889 15.7778C29.6944 23.25 24.5556 33.5278 15.25 34.2778C15.25 34.2778 15.4444 36.3056 15.6667 39.3056L21.8889 36.1111C22.5833 35.75 23.4167 36.0278 23.75 36.7222C24.1111 37.4167 23.8333 38.25 23.1389 38.5833L15.8333 42.3056C15.8333 43.0278 15.9167 43.8056 15.9444 44.5833L20.8611 42.0833C21.5556 41.7222 22.3889 42 22.7222 42.6944C23.0833 43.3889 22.8056 44.2222 22.1111 44.5556L16.0556 47.6667C16.0556 48.4444 16.0556 49.1944 16.1111 49.9722L19.8611 48.0556C20.5556 47.6944 21.3889 47.9722 21.7222 48.6667C22.0833 49.3611 21.8056 50.1944 21.1111 50.5278L16.0833 53.0833C16.0833 53.4167 16.0833 53.7778 16.0833 54.1111C16.0833 54.5833 16.0278 55.0278 16 55.4722L18.8611 54C19.5556 53.6389 20.3889 53.9167 20.7222 54.6111C21.0833 55.3056 20.8056 56.1389 20.1111 56.4722L15.5 58.8333C14.1944 65.3056 11.1389 70.75 10.7222 74.9444C10.7222 75.1389 10.7222 75.3333 10.7222 75.5C22.7778 69.75 29.7222 62.0278 30.3056 53.75H30.25ZM33.0278 53.9444C32.3611 63.2778 24.8611 71.7778 11.8889 78C12.6111 78.5556 13.6389 78.7778 14.8333 78.3889C15.4444 78.1945 16.8056 77.5556 18.5833 76.5278L19.8889 78L19.2778 76.1111C21.1111 75 23.3056 73.5 25.4444 71.6111L27.1944 73.0833L26.0556 71.0833C28.1111 69.25 30.0833 67.0833 31.6944 64.6111L33.3056 65.3611L32.0556 64.0833C33.8333 61.1944 35.1111 57.9167 35.3889 54.2778C35.6389 50.75 36.0833 47.8056 36.6389 45.2778C38.8611 36.7222 43.1667 33.5278 45.1667 30.6111C48.1944 26.1944 49.4444 23.8611 45.5833 21.5C44.6389 24.6389 42.7778 28.3611 40.1389 31.5556C36.0278 36.5556 34 40.3611 33.0278 53.9444ZM200 55.4722L182.167 73.3056C182.417 81.3611 181.028 89.4445 177.917 97L196.861 78.0556L200 81.1944L115.806 165.417C93.4167 187.806 56.9722 187.806 34.5833 165.417C30.0556 160.889 26.4444 155.778 23.75 150.333L3.13889 170.944L0 167.778L21.8333 145.944C19.8611 140.917 18.6111 135.667 18.0833 130.361L1.97222 146.472L0 144.528L17.8333 126.694C17.5833 118.639 18.9722 110.556 22.0833 103L3.13889 121.944L0 118.778L84.1945 34.5833C106.583 12.1944 143.028 12.1944 165.417 34.5833C169.944 39.1111 173.556 44.2222 176.25 49.6667L196.861 29.0556L200 32.2222L178.167 54.0556C180.139 59.0833 181.389 64.3333 181.917 69.6389L198.028 53.5278L200 55.4722ZM22.3056 122.222L94.4444 50.1111C109.75 34.8056 134.611 34.8056 149.917 50.1111C154.611 54.8056 157.833 60.3889 159.667 66.3056L172.944 53.0278C170.389 47.5 166.861 42.3056 162.306 37.75C141.639 17.0833 108.028 17.0833 87.3889 37.75L37.75 87.3333C28.0556 97 22.9167 109.528 22.3056 122.222ZM141.944 83.9722L157.389 68.5278C155.806 62.5 152.667 56.7778 147.944 52.0556C133.722 37.8333 110.611 37.8333 96.4167 52.0556L52.0556 96.3889C43.9444 104.5 40.4722 115.528 41.6111 126.139L103.333 64.4444C112.222 55.5556 126.667 55.5556 135.556 64.4444C144.444 73.3333 143 77.0556 141.944 83.9722ZM132.389 93.5278C139.528 86.3611 139.528 74.75 132.389 67.6111C125.25 60.4722 113.611 60.4722 106.444 67.6111L67.5556 106.5C60.4167 113.639 60.4167 125.278 67.5556 132.444C74.6944 139.583 86.3333 139.583 93.5 132.444L132.389 93.5278ZM42.6111 131.444C44.1944 137.472 47.3333 143.194 52.0556 147.917C66.2778 162.139 89.3889 162.139 103.583 147.917L147.917 103.611C156.028 95.5 159.5 84.4722 158.361 73.8611L96.6667 135.556C87.7778 144.444 73.3333 144.444 64.4444 135.556C55.5556 126.667 57 122.944 58.0556 116.028L42.6111 131.444ZM25.2778 142.5L39.1667 128.611C37.9444 121.25 38.8333 113.583 41.8333 106.639L22.2778 126.194C22.4167 131.722 23.4167 137.222 25.2778 142.5ZM177.694 77.7778L105.556 149.889C90.25 165.194 65.3889 165.194 50.0833 149.889C45.3889 145.194 42.1667 139.611 40.3333 133.694L27.0556 146.972C29.6111 152.5 33.1389 157.694 37.6944 162.25C58.3611 182.917 91.9722 182.917 112.611 162.25L162.222 112.667C171.944 102.972 177.083 90.4722 177.694 77.7778ZM177.722 73.8056C177.583 68.2778 176.583 62.75 174.722 57.4722L160.833 71.3611C162.056 78.7222 161.167 86.3889 158.167 93.3333L177.722 73.8056ZM163.056 139.75L104.75 198.028L106.722 200L161.917 144.806C162.111 143.028 162.5 141.361 163.056 139.75ZM149.944 177.972L129.889 198.028L131.861 200L151.806 180.056C151 179.417 150.389 178.722 149.944 177.972ZM169.75 146.25C168.778 159.972 166.667 164.556 162.028 170.194C159.333 173.472 157.583 177.278 156.861 180.028C157 180.083 157.111 180.139 157.25 180.222C162.194 182.389 166.5 183.833 169.806 184.5C173.333 185.194 175.111 185.389 176.111 184.25C170.306 176.778 175.444 166.5 184.75 165.75C184.75 165.75 184.556 163.722 184.333 160.722L178.111 163.889C177.417 164.25 176.583 163.972 176.25 163.278C175.889 162.583 176.167 161.75 176.861 161.417L184.167 157.694C184.167 156.972 184.083 156.194 184.056 155.417L179.139 157.917C178.444 158.278 177.611 158 177.278 157.306C176.917 156.611 177.194 155.778 177.889 155.444L183.944 152.333C183.944 151.556 183.944 150.806 183.889 150.028L180.139 151.944C179.444 152.306 178.611 152.028 178.278 151.333C177.917 150.639 178.194 149.806 178.889 149.472L183.917 146.917C183.917 146.583 183.917 146.222 183.917 145.889C183.917 145.417 183.972 144.972 184 144.528L181.139 146C180.444 146.361 179.611 146.083 179.278 145.389C178.944 144.694 179.194 143.861 179.889 143.528L184.5 141.167C185.806 134.694 188.861 129.25 189.278 125.056C189.278 124.861 189.278 124.667 189.278 124.5C177.222 130.25 170.278 137.972 169.694 146.25H169.75ZM166.972 146.056C167.639 136.722 175.139 128.222 188.111 122C187.389 121.444 186.361 121.222 185.167 121.611C184.556 121.806 183.194 122.444 181.417 123.472L180.111 122L180.722 123.889C178.889 125 176.694 126.5 174.556 128.389L172.806 126.917L173.944 128.917C171.889 130.75 169.917 132.917 168.306 135.389L166.694 134.639L167.944 135.917C166.167 138.806 164.889 142.083 164.611 145.722C164.361 149.25 163.917 152.194 163.361 154.722C161.139 163.278 156.833 166.472 154.833 169.389C151.806 173.806 150.556 176.139 154.417 178.5C155.361 175.361 157.222 171.639 159.861 168.444C163.972 163.444 166 159.639 166.972 146.056Z" fill="white"/>
</g>
</g>
<defs>
<clipPath id="clip0_2_244">
<rect width="200" height="200" fill="white"/>
</clipPath>
</defs>
</svg>
