<svg width="200" height="200" viewBox="0 0 200 200" fill="none" xmlns="http://www.w3.org/2000/svg">
<g clip-path="url(#clip0_2_316)">
<mask id="mask0_2_316" style="mask-type:luminance" maskUnits="userSpaceOnUse" x="0" y="0" width="200" height="200">
<path d="M200 0H0V200H200V0Z" fill="white"/>
</mask>
<g mask="url(#mask0_2_316)">
<path d="M11.9444 115.889L9.88889 113.833L13.6111 105.361L16.5 108.25L11.9444 115.889ZM42.2222 62.0556L18.0556 37.8889L37.8611 18.0556L62.0278 42.2222L60.0556 44.1944L55.6111 39.75L48.6389 46.7222L53.0833 51.1667L51.1111 53.1389L46.6667 48.6944L39.7222 55.6667L44.1667 60.1111L42.2222 62.0556ZM46.75 30.8611L39.7778 37.8333L46.6944 44.75L53.6667 37.7778L46.75 30.8611ZM30.8889 28.9444L37.8056 35.8611L44.7778 28.8889L37.8611 21.9722L30.8889 28.9444ZM28.8889 44.8056L35.8611 37.8333L28.9444 30.9167L21.9722 37.8889L28.8889 44.8056ZM37.7778 53.6944L44.75 46.7222L37.8333 39.8056L30.8333 46.7778L37.7778 53.6944ZM21.25 129.139L8.72222 116.611L6.75 118.583L19.2778 131.111L21.25 129.139ZM2.58333 122.75C-0.861111 126.194 -0.861111 131.806 2.58333 135.278C6.02778 138.75 11.6389 138.722 15.1111 135.278L17.3056 133.083L4.77778 120.556L2.58333 122.75ZM33.9444 79.0833L31.7778 72.75C31.5 71.9444 30.7778 71.3889 29.9167 71.3611C29.0556 71.3333 28.2778 71.8056 27.9444 72.6111L14.8056 102.639L17.9722 105.806L33.9444 79.0833ZM36.1667 76.9722L92.7222 20.4167L90.75 18.4444L35.1667 74.0556L36.1667 76.9722ZM57.5 101.389L56.8056 95.0278C56.7222 94.1389 56.0556 93.4444 55.1944 93.2778L47.8333 91.9444L25.9722 113.806L30 117.833L57.5 101.389ZM13.9722 117.917L15.9722 119.917L22.0556 113.833L18.5278 110.278L13.9722 117.917ZM42.8056 81.0278L36.4444 80.3333L19.9722 107.833L24 111.861L45.8611 90L44.5278 82.6389C44.3889 81.7778 43.6944 81.1111 42.8056 81.0278ZM63.7778 102.667L146.028 20.4167L144.056 18.4444L60.8611 101.667L63.7778 102.667ZM27.5556 119.306L24.0278 115.778L17.9444 121.861L19.9444 123.861L27.5556 119.306ZM32.4722 124.222L29.5833 121.333L21.9444 125.889L24 127.944L32.4722 124.222ZM86.7222 70.8333L88.6944 68.8611L82.2778 62.4444L62.4444 82.2778L68.8611 88.6944L70.8333 86.7222L66.3889 82.2778L73.3611 75.3056L77.8056 79.75L79.7778 77.7778L75.3333 73.3333L82.3056 66.3611L86.7222 70.8333ZM51.0833 67L49.1111 68.9722L55.5278 75.3889L75.3611 55.5556L68.9444 49.1389L66.9722 51.1111L71.4167 55.5556L64.4444 62.5278L60 58.0833L58.0278 60.0556L62.4722 64.5L55.5 71.4722L51.0833 67ZM65.2222 109.861C66 109.528 66.5 108.75 66.4722 107.889C66.4444 107.028 65.8889 106.306 65.0833 106.028L58.75 103.861L32.0278 119.833L35.1944 123L65.2222 109.861ZM48.5833 89.25L50.25 89.5556L119.389 20.4167L117.417 18.4444L48.2778 87.5833L48.5833 89.25ZM148.917 133.028L150.889 131.056L144.472 124.639L124.639 144.472L131.056 150.889L133.028 148.917L128.583 144.472L135.556 137.5L140 141.944L141.972 139.972L137.528 135.528L144.5 128.556L148.917 133.028ZM163.833 123.056L107.25 179.611L109.222 181.583L164.806 126L163.833 123.056ZM113.278 129.194L111.306 131.167L117.722 137.583L137.556 117.75L131.139 111.333L129.167 113.306L133.611 117.75L126.639 124.722L122.194 120.278L120.222 122.25L124.667 126.694L117.694 133.667L113.278 129.194ZM157.778 137.972L181.944 162.139L162.111 181.972L137.944 157.806L139.917 155.833L144.361 160.278L151.333 153.306L146.889 148.861L148.861 146.889L153.306 151.333L160.278 144.361L155.833 139.917L157.778 137.972ZM153.25 169.167L160.222 162.194L153.306 155.278L146.333 162.25L153.25 169.167ZM169.111 171.083L162.194 164.167L155.222 171.139L162.139 178.056L169.111 171.083ZM171.111 155.222L164.139 162.194L171.056 169.111L178.028 162.139L171.111 155.222ZM162.222 146.333L155.278 153.306L162.194 160.222L169.167 153.25L162.222 146.333ZM151.417 110.778L149.75 110.472L80.6111 179.611L82.5833 181.583L151.722 112.444L151.417 110.778ZM166.056 120.944L168.222 127.278C168.5 128.083 169.222 128.639 170.083 128.667C170.944 128.694 171.722 128.222 172.056 127.417L185.222 97.3889L182.056 94.2222L166.056 120.944ZM178.75 70.9167L191.278 83.4444L193.25 81.4722L180.722 68.9444L178.75 70.9167ZM197.417 64.7778C193.972 61.3333 188.361 61.3333 184.889 64.7778L182.694 66.9722L195.222 79.5L197.417 77.3056C200.861 73.8333 200.861 68.2222 197.417 64.7778ZM183.5 91.7778L186.389 94.6667L190.111 86.1944L188.056 84.1389L183.5 91.7778ZM91.6667 111.5L21.5833 181.583L18.4444 178.444L88.5278 108.361L75.7778 95.6111L77.75 93.6389L82.1944 98.0833L89.1667 91.1111L84.7222 86.6667L86.6945 84.6944L91.1389 89.1389L98.1111 82.1667L93.6667 77.7222L95.6389 75.75L108.389 88.5L178.444 18.4444L181.583 21.5833L111.472 91.6667L124.222 104.417L122.25 106.389L117.806 101.944L110.833 108.917L115.278 113.361L113.306 115.333L108.861 110.889L101.889 117.861L106.333 122.306L104.389 124.25L91.6667 111.5ZM106.917 108.889L100.583 102.556L93.6111 109.528L99.9444 115.861L106.917 108.889ZM102.556 100.611L108.889 106.944L115.861 99.9722L109.528 93.6389L102.556 100.611ZM93.0833 91.1389L99.4167 97.4722L106.389 90.5L100.056 84.1667L93.0833 91.1389ZM90.4722 106.389L97.4444 99.4167L91.1111 93.1111L84.1389 100.083L90.4722 106.389ZM144.806 106.75L152.167 108.083L174.028 86.2222L170 82.1944L142.5 98.6667L143.194 105.028C143.278 105.889 143.944 106.611 144.806 106.75ZM136.222 97.3889L53.9722 179.611L55.9444 181.583L139.167 98.3611L136.222 97.3889ZM134.75 90.1667C133.972 90.5 133.472 91.2778 133.5 92.1389C133.528 93 134.083 93.7222 134.889 94L141.222 96.1667L167.944 80.1944L164.778 77.0278L134.75 90.1667ZM167.528 75.8056L170.417 78.6944L178.056 74.1389L176 72.0833L167.528 75.8056ZM157.194 119L163.556 119.694L180.028 92.1944L176 88.1667L154.139 110.028L155.472 117.389C155.583 118.25 156.306 118.917 157.194 119ZM172.444 80.7222L175.972 84.25L182.056 78.1667L180.056 76.1667L172.444 80.7222ZM186.028 82.1111L184.028 80.1111L177.944 86.1944L181.472 89.7222L186.028 82.1111Z" fill="white"/>
</g>
</g>
<defs>
<clipPath id="clip0_2_316">
<rect width="200" height="200" fill="white"/>
</clipPath>
</defs>
</svg>
