<svg width="200" height="200" viewBox="0 0 200 200" fill="none" xmlns="http://www.w3.org/2000/svg">
<g clip-path="url(#clip0_2_279)">
<mask id="mask0_2_279" style="mask-type:luminance" maskUnits="userSpaceOnUse" x="0" y="0" width="200" height="200">
<path d="M200 0H0V200H200V0Z" fill="white"/>
</mask>
<g mask="url(#mask0_2_279)">
<path d="M87.5 27.6667C87.0834 20.2778 84.5 13.3056 80.1111 7.44444C84.8889 3.22222 91.0278 0.5 97.7778 0V27.6667H87.5ZM119.889 7.44444C115.111 3.22222 108.972 0.5 102.222 0V27.6667H112.5C112.944 20.3056 115.5 13.3056 119.889 7.44444ZM83.0278 32.1111H70.0834C70.5556 38.5556 73.0556 44.4444 76.9723 49.1111C80.5278 44.1389 82.6389 38.3056 83.0278 32.1111ZM83.0278 27.6667C82.6111 21.5 80.5278 15.6389 76.9723 10.6667C73.0556 15.3333 70.5556 21.2222 70.0834 27.6667H83.0278ZM112.5 32.1111H102.222V59.7778C108.972 59.2778 115.111 56.5556 119.889 52.3333C115.5 46.5 112.944 39.5 112.5 32.1111ZM116.972 27.6667H129.917C129.444 21.2222 126.944 15.3611 123.028 10.6944C119.472 15.6667 117.361 21.5 116.972 27.6667ZM116.972 32.1111C117.389 38.2778 119.472 44.1389 123.028 49.1111C126.944 44.4444 129.444 38.5556 129.917 32.1111H116.972ZM97.7778 32.1111H87.5C87.0834 39.5 84.5 46.4722 80.1111 52.3333C84.8889 56.5556 91.0278 59.2778 97.7778 59.7778V32.1111ZM102.222 172.333V200C108.972 199.5 115.111 196.778 119.889 192.556C115.5 186.694 112.944 179.722 112.5 172.333H102.222ZM80.1111 192.556C84.8889 196.778 91.0278 199.5 97.7778 200V172.333H87.5C87.0556 179.694 84.5 186.694 80.1111 192.556ZM116.972 167.889H129.917C129.444 161.444 126.944 155.556 123.028 150.889C119.472 155.861 117.361 161.694 116.972 167.889ZM116.972 172.333C117.389 178.5 119.472 184.361 123.028 189.333C126.944 184.667 129.444 178.778 129.917 172.333H116.972ZM87.5 167.889H97.7778V140.222C91.0278 140.722 84.8889 143.444 80.1111 147.667C84.5 153.5 87.0556 160.5 87.5 167.889ZM83.0278 172.333H70.0834C70.5556 178.778 73.0556 184.667 76.9723 189.333C80.5278 184.333 82.6389 178.5 83.0278 172.333ZM83.0278 167.889C82.6111 161.722 80.5278 155.861 76.9723 150.889C73.0556 155.556 70.5556 161.444 70.0834 167.889H83.0278ZM102.222 167.889H112.5C112.917 160.5 115.5 153.528 119.889 147.667C115.111 143.444 108.972 140.722 102.222 140.222V167.889ZM187.194 133.361L161.861 158.694L181.583 178.417L178.444 181.556L100 103.139L74.6667 128.472L21.5278 181.583L18.3889 178.444L57.9445 138.889C42.6389 144.111 24.9723 140.639 12.8056 128.472C-4.24997 111.417 -4.24997 83.6667 12.8056 66.6389L38.1389 41.3056L18.4167 21.5833L21.5556 18.4444L100 96.8611L178.472 18.4167L181.611 21.5556L142.056 61.1111C157.361 55.8889 175.028 59.3611 187.194 71.5278C204.25 88.5833 204.25 116.306 187.194 133.361ZM55.3611 58.5278L27.5278 86.3889L54.9167 113.778L82.7778 85.9167L55.3611 58.5278ZM29.6945 92.4722C24.6667 97.75 24.75 106.139 29.9445 111.333C35.1389 116.528 43.5278 116.583 48.8056 111.583L29.6945 92.4722ZM96.8611 100L84.7223 87.8889L54.9167 117.694L50.7778 113.556C44.3889 119.667 34.25 119.583 27.9723 113.306C21.6945 107.028 21.6111 96.8889 27.7223 90.5L23.5834 86.3889L53.4167 56.5833L41.25 44.4444L15.9167 69.7778C0.58336 85.0833 0.58336 110.028 15.9167 125.333C31.25 140.639 56.1667 140.639 71.4723 125.333L96.8611 100ZM144.639 141.472L172.472 113.611L145.083 86.2222L117.222 114.083L144.639 141.472ZM170.306 107.528C175.333 102.25 175.25 93.8611 170.056 88.6667C164.861 83.4722 156.472 83.4167 151.194 88.4167L170.306 107.528ZM103.139 100L115.278 112.111L145.111 82.3056L149.25 86.4445C155.639 80.3333 165.778 80.4167 172.056 86.6945C178.333 92.9722 178.417 103.111 172.306 109.5L176.444 113.639L146.583 143.444L158.722 155.583L184.056 130.25C199.389 114.944 199.389 90 184.056 74.6944C168.722 59.3889 143.806 59.3889 128.472 74.6944L103.139 100Z" fill="white"/>
</g>
</g>
<defs>
<clipPath id="clip0_2_279">
<rect width="200" height="200" fill="white"/>
</clipPath>
</defs>
</svg>
