<svg width="200" height="200" viewBox="0 0 200 200" fill="none" xmlns="http://www.w3.org/2000/svg">
<g clip-path="url(#clip0_2_347)">
<mask id="mask0_2_347" style="mask-type:luminance" maskUnits="userSpaceOnUse" x="-41" y="-41" width="281" height="281">
<path d="M240 -40.1556H-40.1556V240H240V-40.1556Z" fill="white"/>
</mask>
<g mask="url(#mask0_2_347)">
<path d="M119.339 48.5992C125.953 41.9844 134.008 46.6148 140.195 40.1167C142.062 38.249 145.097 38.2879 146.965 40.1556L159.572 52.7626C161.44 54.6304 161.44 57.6654 159.572 59.572L148.327 70.8171C148.249 70.7004 138.988 61.5175 138.911 61.3619C134.202 56.6537 126.42 56.4981 121.868 61.3619C120 63.3852 116.693 65.0195 114.125 62.9572C111.712 61.1284 110.078 57.7432 112.607 55.2529C115.447 52.4514 119.3 48.6381 119.339 48.5992ZM123.735 63.8132C119.844 67.821 114.63 68.249 110.856 63.7354C103.619 69.7276 102.607 80.7782 109.416 87.5097C117.237 96.6926 127.471 103.774 138.249 94.0078C143.696 88.4436 153.813 81.323 146.07 73.035C140.195 67.6265 132.101 55.1751 123.735 63.8132ZM154.708 145.292L200 100L161.556 61.5564L158.405 64.7082L191.518 97.821H181.595L159.261 75.4864L157.276 77.4708L177.626 97.821H167.704L159.261 89.3774L157.276 91.3619L165.992 100.078L157.276 108.794L159.261 110.778L167.704 102.335H177.626L157.276 122.568L159.261 124.553L181.595 102.218H191.518L151.556 142.14L154.708 145.292ZM162.451 51.7121L176.07 38.0934L161.44 23.8521L147.977 37.2763C148.016 37.3152 162.412 51.7121 162.451 51.7121ZM97.7821 8.5214V18.4436L75.4475 40.7782L77.4319 42.7626L97.7821 22.4125V32.2957L89.3385 40.7393L91.323 42.7237L100 34.0078L108.716 42.7237L110.7 40.7393L102.218 32.2957V22.3735L122.568 42.7237L124.553 40.7393L102.218 18.4047V8.5214L134.358 40.6615C135.759 40.1946 137.004 39.4553 138.21 38.2101L100 0L54.7082 45.2918L57.8599 48.4436L97.7821 8.5214ZM18.4436 21.5564L178.444 181.556L181.595 178.405L21.5564 18.4436L18.4436 21.5564ZM76.2646 136.187C80.1556 132.179 85.3697 131.751 89.144 136.265C96.3813 130.272 97.393 119.222 90.5837 112.49C82.7626 103.307 72.5292 96.2257 61.751 105.992C56.3035 111.556 46.1868 118.677 53.93 126.965C59.8054 132.374 67.8988 144.825 76.2646 136.187ZM102.218 191.479V181.556L124.553 159.222L122.568 157.237L102.218 177.588V167.704L110.661 159.261L108.677 157.276L100 165.992L91.284 157.276L89.2996 159.261L97.7432 167.704V177.626L77.4319 157.276L75.4475 159.261L97.7821 181.595V191.518L65.642 159.377C64.2412 159.844 62.9961 160.584 61.7899 161.829L100 200L145.292 154.708L142.14 151.556L102.218 191.479ZM45.2918 54.7082L0 100L38.4436 138.444L41.5953 135.292L8.48249 102.179H18.4047L40.7393 124.514L42.7237 122.529L22.3735 102.179H32.2957L40.7393 110.623L42.7237 108.638L34.0078 100L42.7237 91.284L40.7393 89.2996L32.2957 97.7821H22.3735L42.7237 77.4319L40.7393 75.4475L18.4436 97.7821H8.5214L48.4436 57.8599L45.2918 54.7082ZM37.5486 148.288L23.93 161.907L38.5603 176.148L51.9844 162.724C51.9844 162.685 37.5875 148.288 37.5486 148.288ZM87.4319 144.708C89.9611 142.257 88.3268 138.833 85.9144 137.004C83.3463 134.942 80.0389 136.576 78.1712 138.599C73.6576 143.463 65.8366 143.307 61.1284 138.599C61.0506 138.482 51.7899 129.3 51.7121 129.144L40.4669 140.389C38.5992 142.257 38.5992 145.292 40.4669 147.198L53.0739 159.805C54.9416 161.673 57.9767 161.712 59.8444 159.844C66.0311 153.346 74.0856 157.977 80.7004 151.362C80.7004 151.362 84.5525 147.549 87.4319 144.708Z" fill="white"/>
</g>
</g>
<defs>
<clipPath id="clip0_2_347">
<rect width="200" height="200" fill="white"/>
</clipPath>
</defs>
</svg>
