<svg width="200" height="200" viewBox="0 0 200 200" fill="none" xmlns="http://www.w3.org/2000/svg">
<g clip-path="url(#clip0_2_328)">
<mask id="mask0_2_328" style="mask-type:luminance" maskUnits="userSpaceOnUse" x="0" y="0" width="200" height="200">
<path d="M200 0H0V200H200V0Z" fill="white"/>
</mask>
<g mask="url(#mask0_2_328)">
<path d="M29.1389 78.0833C29.6389 78.0833 30.1389 78.0556 30.6389 78.0278L1.97222 106.667L0 104.722L26.7778 77.9444C27.5556 78.0278 28.3333 78.0833 29.1389 78.0833ZM20.8056 76.1111C19.9444 75.6944 19.1389 75.1945 18.3611 74.6389L0 93L1.97222 94.9722L20.8056 76.1111ZM116.444 0L0 116.444L3.13889 119.583L119.583 3.13889L116.444 0ZM104.278 57.25L112.139 49.3889L110.167 47.4167L102.306 55.2778L104.278 57.25ZM76.8611 84.6944L84.7222 76.8333L82.75 74.8611L74.8889 82.7222L76.8611 84.6944ZM198.028 105.056L179.194 123.889C180.056 124.306 180.861 124.806 181.639 125.361L200 107L198.028 105.056ZM63.1389 98.4167L71 90.5556L69.0278 88.5833L61.1667 96.4445L63.1389 98.4167ZM169.361 121.972C169.861 121.944 170.361 121.917 170.861 121.917C171.639 121.917 172.444 121.972 173.194 122.056L200 95.2778L198.028 93.3056L169.361 121.972ZM187.75 166.222C187.889 166.667 187.75 167.167 187.444 167.5L180.75 174.306C180.194 174.861 179.306 174.861 178.75 174.306C178.306 173.889 178.194 173.222 178.472 172.694L179.806 169.944L170.694 164.833L156.444 179.083L148.333 175.167C148.333 174.889 148.389 174.611 148.389 174.333C148.389 168.056 143.306 162.972 137.028 162.972C130.75 162.972 125.667 168.056 125.667 174.333C125.667 180.611 130.75 185.694 137.028 185.694C143.306 185.694 144.556 183.611 146.556 180.472L136.417 175.583L137.639 173.083L159.083 183.444C159.889 183.833 160.417 184.583 160.556 185.444C160.694 186.306 160.417 187.194 159.806 187.806L156.028 191.583C155.361 192.25 154.417 192.528 153.5 192.306C152.583 192.083 151.861 191.417 151.556 190.528L150.389 187.056L153.028 186.167L154.167 189.528L157.806 185.889L150.611 182.417C147.861 187.028 142.806 190.111 137.056 190.111C128.333 190.111 121.25 183.028 121.25 174.306C121.25 165.583 128.333 158.5 137.056 158.5C145.778 158.5 151.472 164.278 152.667 171.833L155.917 156.5L150 153.194L151.361 150.778L165.528 158.694L169.583 140.167L172.306 140.75L168.083 160.111L181.167 167.417C181.972 165.944 183.5 165.056 185.167 165.056C186.833 165.056 185.722 165.056 186.028 165.139L186.889 165.306C187.222 165.417 187.611 165.75 187.75 166.194V166.222ZM168.167 163.444L158.389 157.972L154.306 177.306L168.167 163.444ZM172.667 151.694L171.667 156.278C180.028 155.861 186.667 148.944 186.667 140.5C186.667 132.056 179.583 124.694 170.861 124.694C162.139 124.694 155.056 131.778 155.056 140.5C155.056 149.222 158.5 151.861 163.528 154.5L164.528 149.944C161.5 147.917 159.5 144.444 159.5 140.5C159.5 134.222 164.583 129.139 170.861 129.139C177.139 129.139 182.222 134.222 182.222 140.5C182.222 146.778 178.083 150.833 172.667 151.694ZM118 43.5556L125.861 35.6944L123.889 33.7222L116.028 41.5833L118 43.5556ZM139.583 21.9722L137.611 20L129.75 27.8611L131.722 29.8333L139.583 21.9722ZM90.5833 70.9722L98.4444 63.1111L96.4722 61.1389L88.6111 69.0278L90.5833 70.9722ZM117.25 125.111L125.111 117.25L123.139 115.278L115.278 123.139L117.25 125.111ZM60.4167 178.028L62.3889 180L70.25 172.139L68.2778 170.167L60.4167 178.028ZM103.528 138.833L111.389 130.972L109.417 129L101.556 136.861L103.528 138.833ZM89.8056 152.556L97.6667 144.694L95.6944 142.722L87.8333 150.583L89.8056 152.556ZM82 156.444L74.1389 164.306L76.1111 166.278L83.9722 158.417L82 156.444ZM196.861 80.4167L80.4167 196.861L83.5556 200L200 83.5556L196.861 80.4167ZM49.4167 112.139L57.2778 104.278L55.3056 102.306L47.4444 110.167L49.4167 112.139ZM178.417 18.4167L18.4167 178.417L21.5556 181.556L181.556 21.5556L178.417 18.4167ZM21.9722 139.583L29.8333 131.722L27.8611 129.75L20 137.611L21.9722 139.583ZM130.972 111.389L138.833 103.528L136.861 101.556L129 109.417L130.972 111.389ZM35.6944 125.861L43.5556 118L41.5833 116.028L33.7222 123.889L35.6944 125.861ZM144.694 97.6667L152.556 89.8056L150.583 87.8333L142.722 95.6944L144.694 97.6667ZM172.139 70.2222L180 62.3611L178.028 60.3889L170.167 68.25L172.139 70.2222ZM158.417 83.9445L166.278 76.0833L164.306 74.1111L156.444 81.9722L158.417 83.9445ZM44.9444 59.5C44.9444 53.4167 41.5 48.1389 36.4722 45.5L35.4722 50.0556C38.5 52.0833 40.5 55.5556 40.5 59.5C40.5 65.7778 35.4167 70.8611 29.1389 70.8611C22.8611 70.8611 17.7778 65.7778 17.7778 59.5C17.7778 53.2222 21.9167 49.1667 27.3333 48.3056L28.3333 43.7222C19.9722 44.1389 13.3333 51.0556 13.3333 59.5C13.3333 67.9444 20.4167 75.3056 29.1389 75.3056C37.8611 75.3056 44.9444 68.2222 44.9444 59.5ZM12.25 33.7778C12.1111 33.3333 12.25 32.8333 12.5556 32.5L19.25 25.6944C19.8056 25.1389 20.6944 25.1389 21.25 25.6944C21.6944 26.1111 21.8056 26.7778 21.5278 27.3056L20.1944 30.0556L29.3056 35.1667L43.5556 20.9167L51.6667 24.8333C51.6389 25.1111 51.6111 25.3889 51.6111 25.6667C51.6111 31.9444 56.6944 37.0278 62.9722 37.0278C69.25 37.0278 74.3333 31.9444 74.3333 25.6667C74.3333 19.3889 69.25 14.3056 62.9722 14.3056C56.6944 14.3056 55.4444 16.3889 53.4444 19.5278L63.5833 24.4167L62.3611 26.9167L40.9167 16.5556C40.1111 16.1667 39.5833 15.4167 39.4444 14.5556C39.3056 13.6944 39.5833 12.8056 40.1944 12.1944L43.9722 8.41667C44.6389 7.75 45.5833 7.47222 46.5 7.69445C47.4167 7.91667 48.1389 8.58333 48.4444 9.47222L49.6111 12.9444L46.9722 13.8333L45.8333 10.4722L42.1944 14.1111L49.3889 17.5833C52.1389 12.9722 57.1944 9.88889 62.9444 9.88889C71.6667 9.88889 78.75 16.9722 78.75 25.6944C78.75 34.4167 71.6667 41.5 62.9444 41.5C54.2222 41.5 48.5278 35.7222 47.3333 28.1667L44.0833 43.5L50 46.8056L48.6389 49.2222L34.4722 41.3056L30.4167 59.8333L27.6944 59.25L31.9167 39.8889L18.8333 32.5833C18.0278 34.0556 16.5 34.9444 14.8333 34.9444C13.1667 34.9444 14.2778 34.9444 13.9722 34.8611L13.1111 34.6944C12.7778 34.5833 12.3889 34.25 12.25 33.8056V33.7778ZM31.8333 36.5556L41.6111 42.0278L45.6944 22.6944L31.8333 36.5556Z" fill="white"/>
</g>
</g>
<defs>
<clipPath id="clip0_2_328">
<rect width="200" height="200" fill="white"/>
</clipPath>
</defs>
</svg>
