<svg width="200" height="200" viewBox="0 0 200 200" fill="none" xmlns="http://www.w3.org/2000/svg">
<g clip-path="url(#clip0_2_297)">
<mask id="mask0_2_297" style="mask-type:luminance" maskUnits="userSpaceOnUse" x="0" y="0" width="200" height="200">
<path d="M200 0H0V200H200V0Z" fill="white"/>
</mask>
<g mask="url(#mask0_2_297)">
<path d="M189.444 78.0556C192.028 76.6111 194.694 75.1111 200 75.1111V77.8889C195.417 77.8889 193.194 79.1389 190.806 80.5C188.222 81.9444 185.556 83.4444 180.25 83.4444C174.944 83.4444 172.278 81.9444 169.694 80.5C167.306 79.1667 165.083 77.8889 160.5 77.8889C155.917 77.8889 153.694 79.1389 151.306 80.5C148.722 81.9444 146.056 83.4444 140.75 83.4444C135.444 83.4444 132.778 81.9444 130.194 80.5C129.417 80.0556 128.667 79.6389 127.833 79.25L129.917 77.1667C130.5 77.4722 131.028 77.7778 131.556 78.0556C133.944 79.3889 136.167 80.6667 140.75 80.6667C145.333 80.6667 147.556 79.4167 149.944 78.0556C152.528 76.6111 155.194 75.1111 160.5 75.1111C165.806 75.1111 168.472 76.6111 171.056 78.0556C173.444 79.3889 175.667 80.6667 180.25 80.6667C184.833 80.6389 187.083 79.3889 189.444 78.0556ZM180.25 69.3333C175.667 69.3333 173.444 68.0833 171.056 66.7222C168.472 65.2778 165.806 63.7778 160.5 63.7778C155.194 63.7778 152.528 65.2778 149.944 66.7222C147.556 68.0556 145.333 69.3333 140.75 69.3333C136.167 69.3333 138.75 69.2778 137.917 69.1389L135.556 71.5C136.972 71.8611 138.667 72.1111 140.75 72.1111C146.056 72.1111 148.722 70.6111 151.306 69.1667C153.694 67.8333 155.917 66.5556 160.5 66.5556C165.083 66.5556 167.306 67.8056 169.694 69.1667C172.278 70.6111 174.944 72.1111 180.25 72.1111C185.556 72.1111 188.222 70.6111 190.806 69.1667C193.194 67.8333 195.417 66.5556 200 66.5556V63.7778C194.694 63.7778 192.028 65.2778 189.444 66.7222C187.083 68.0833 184.833 69.3333 180.25 69.3333ZM189.444 44.1111C187.056 45.4444 184.833 46.7222 180.25 46.7222C175.667 46.7222 173.444 45.4722 171.056 44.1111C169.417 43.1944 167.75 42.25 165.389 41.6944L163 44.0833C166 44.4444 167.806 45.4722 169.722 46.5278C172.306 47.9722 174.972 49.4722 180.278 49.4722C185.583 49.4722 188.25 47.9722 190.833 46.5278C193.222 45.1944 195.444 43.9167 200.028 43.9167V41.1389C194.694 41.1389 192.028 42.6667 189.444 44.1111ZM180.25 58.0278C175.667 58.0278 173.444 56.7778 171.056 55.4167C168.472 53.9722 165.806 52.4722 160.5 52.4722C155.194 52.4722 155.167 53 153.333 53.7222L147.278 59.7778C148.833 59.2222 150.083 58.5278 151.306 57.8333C153.694 56.5 155.917 55.2222 160.5 55.2222C165.083 55.2222 167.306 56.4722 169.694 57.8333C172.278 59.2778 174.944 60.7778 180.25 60.7778C185.556 60.7778 188.222 59.2778 190.806 57.8333C193.194 56.5 195.417 55.2222 200 55.2222V52.4444C194.694 52.4444 192.028 53.9444 189.444 55.3889C187.083 56.7778 184.833 58.0278 180.25 58.0278ZM135.056 8.25V24.4444H131.167C123.806 24.4444 117.472 27.1944 112.889 32.3889C107.444 38.5278 104.694 47.6944 104.694 59.6389V75.6111H117.306L114.528 78.3889H104.694V88.2222L101.917 91V59.6111C101.917 46.9722 104.917 37.1667 110.806 30.5C114.139 26.7222 118.306 24.1111 123.083 22.75H51.5556C78.0556 28.0278 98.0833 51.4444 98.0833 79.4722V94.8056L95.3056 97.5833V78.3889H66.5833C78.5278 81.0556 87.1111 88.5 92.25 100.667L90.1111 102.806C84.1111 87.6944 72.6111 80.0556 55.9167 80.0556H46.8333L40.5556 71.5H6.78342e-06V67.0556H89.7222V75.6111H95.1667C93.1667 47.0556 69.3056 24.4444 40.25 24.4444H6.78342e-06V20H72.25L58.5833 6.27778C57.5278 5.19444 57.2222 3.66667 57.8056 2.27778C58.3889 0.888889 59.6945 0 61.1945 0H126.833C131.361 0 135.056 3.69444 135.056 8.25ZM53.2778 71.5H43.9722L47 75.6111H50.25L53.2778 71.5ZM81.4167 71.5H56.7222L53.6945 75.6111H78.3889L81.4167 71.5ZM86.9445 71.5H84.8611L81.8333 75.6111H86.9445V71.5ZM99.8333 10H115.611V2.77778H99.8333V10ZM78.5278 12.7778H69L76.1945 20H78.5278V12.7778ZM78.5278 2.77778H61.1945C60.6667 2.77778 60.4445 3.16667 60.3611 3.33333C60.3056 3.5 60.1667 3.91667 60.5556 4.30556L66.2222 10H78.5278V2.77778ZM97.0556 12.7778H81.2778V20H97.0556V12.7778ZM97.0556 2.77778H81.2778V10H97.0556V2.77778ZM99.8333 20H115.611V12.7778H99.8333V20ZM132.278 12.7778H118.389V20H132.278V12.7778ZM132.278 8.25C132.278 5.25 129.833 2.77778 126.806 2.77778H118.389V10H132.278V8.25ZM19.75 119.361C24.3333 119.361 26.5556 120.611 28.9445 121.972C31.5278 123.417 34.1945 124.917 39.5 124.917C44.8056 124.917 47.4722 123.417 50.0556 121.972C52.4445 120.639 54.6667 119.361 59.25 119.361C63.8333 119.361 66.0556 120.611 68.4445 121.972C68.9722 122.278 69.5278 122.583 70.0833 122.861L72.1667 120.778C71.3333 120.389 70.5833 119.972 69.8056 119.528C67.2222 118.083 64.5556 116.583 59.25 116.583C53.9445 116.583 51.2778 118.083 48.6945 119.528C46.3056 120.861 44.0833 122.139 39.5 122.139C34.9167 122.139 32.6945 120.889 30.3056 119.528C27.7222 118.083 25.0556 116.583 19.75 116.583C14.4445 116.583 11.7778 118.083 9.19445 119.528C6.80556 120.861 4.58334 122.139 6.78342e-06 122.139V124.917C5.30556 124.917 7.97223 123.417 10.5556 121.972C12.9167 120.611 15.1667 119.361 19.75 119.361ZM19.75 130.667C24.3333 130.667 26.5556 131.917 28.9445 133.278C31.5278 134.722 34.1945 136.222 39.5 136.222C44.8056 136.222 47.4722 134.722 50.0556 133.278C52.4445 131.944 54.6667 130.667 59.25 130.667C63.8333 130.667 61.25 130.722 62.0833 130.861L64.4445 128.5C63.0278 128.139 61.3333 127.889 59.25 127.889C53.9445 127.889 51.2778 129.389 48.6945 130.833C46.3056 132.167 44.0833 133.444 39.5 133.444C34.9167 133.444 32.6945 132.194 30.3056 130.833C27.7222 129.389 25.0556 127.889 19.75 127.889C14.4445 127.889 11.7778 129.389 9.19445 130.833C6.80556 132.167 4.58334 133.444 6.78342e-06 133.444V136.222C5.30556 136.222 7.97223 134.722 10.5556 133.278C12.9167 131.917 15.1667 130.667 19.75 130.667ZM19.75 141.972C24.3333 141.972 26.5556 143.222 28.9445 144.583C31.5278 146.028 34.1945 147.528 39.5 147.528C44.8056 147.528 44.8333 147 46.6667 146.278L52.7222 140.222C51.1667 140.778 49.9167 141.472 48.6945 142.167C46.3056 143.5 44.0833 144.778 39.5 144.778C34.9167 144.778 32.6945 143.528 30.3056 142.167C27.7222 140.722 25.0556 139.222 19.75 139.222C14.4445 139.222 11.7778 140.722 9.19445 142.167C6.80556 143.5 4.58334 144.778 6.78342e-06 144.778V147.556C5.30556 147.556 7.97223 146.056 10.5556 144.611C12.9167 143.222 15.1667 141.972 19.75 141.972ZM28.9445 155.889C30.5833 156.806 32.25 157.75 34.6111 158.306L37 155.917C34 155.556 32.1945 154.528 30.2778 153.472C27.6945 152.028 25.0278 150.528 19.7222 150.528C14.4167 150.528 11.75 152.028 9.16667 153.472C6.77778 154.806 4.55556 156.083 -0.027771 156.083V158.861C5.27778 158.861 7.94445 157.361 10.5278 155.917C12.9167 154.583 15.1389 153.306 19.7222 153.306C24.3056 153.306 26.5556 154.556 28.9445 155.889ZM110.278 124.389H104.833C106.833 152.944 130.694 175.556 159.75 175.556H200V180H127.75L141.417 193.722C142.472 194.806 142.778 196.333 142.194 197.722C141.611 199.111 140.306 200 138.806 200H73.1667C68.6111 200 64.9167 196.306 64.9167 191.75V175.556H68.8056C76.1667 175.556 82.5 172.806 87.0833 167.611C92.5278 161.472 95.2778 152.306 95.2778 140.361V124.389H82.6667L85.4445 121.611H95.2778V111.778L98.0556 109V140.389C98.0556 153.028 95.0556 162.833 89.1667 169.5C85.8333 173.278 81.6667 175.889 76.8889 177.25H148.389C121.889 171.972 101.861 148.556 101.861 120.528V105.194L104.639 102.417V121.611H133.361C121.417 118.944 112.833 111.5 107.694 99.3333L109.833 97.1944C115.833 112.306 127.333 119.944 144.028 119.944H153.111L159.389 128.5H199.944V132.944H110.278V124.389ZM67.7222 187.222H81.6111V180H67.7222V187.222ZM73.1667 197.222H81.5833V190H67.6945V191.75C67.7222 194.778 70.1667 197.222 73.1667 197.222ZM100.167 190H84.3889V197.222H100.167V190ZM100.167 180H84.3889V187.222H100.167V180ZM118.694 190H102.917V197.222H118.694V190ZM118.694 180H102.917V187.222H118.694V180ZM133.778 190H121.472V197.222H138.806C139.333 197.222 139.556 196.833 139.639 196.667C139.694 196.5 139.833 196.083 139.444 195.694L133.778 190ZM123.833 180H121.5V187.222H131.028L123.833 180ZM146.722 128.5H156.028L153 124.389H149.75L146.722 128.5ZM118.583 128.5H143.278L146.306 124.389H121.611L118.583 128.5ZM113.056 128.5H115.139L118.167 124.389H113.056V128.5ZM181.583 21.5833L178.444 18.4444L18.4445 178.444L21.5833 181.583L181.583 21.5833Z" fill="white"/>
</g>
</g>
<defs>
<clipPath id="clip0_2_297">
<rect width="200" height="200" fill="white"/>
</clipPath>
</defs>
</svg>
