<svg width="200" height="200" viewBox="0 0 200 200" fill="none" xmlns="http://www.w3.org/2000/svg">
<g clip-path="url(#clip0_2_334)">
<mask id="mask0_2_334" style="mask-type:luminance" maskUnits="userSpaceOnUse" x="0" y="0" width="200" height="200">
<path d="M200 0H0V200H200V0Z" fill="white"/>
</mask>
<g mask="url(#mask0_2_334)">
<path d="M0 41.5833C0 27.6667 8.77778 15.8333 21.0833 11.25L32.3333 0V9.25L60.0556 23.1111L55.4444 32.3611H32.3333V73.9445C14.4722 73.9167 0 59.4444 0 41.5833ZM59.8333 60C68.2778 51.5556 81.9444 51.5556 90.3889 60L92.0278 61.6389L100 53.6667L103.139 56.8056L84.25 75.6944L94.1389 88.2222L87.3056 95.0556L71.3611 88.6111L64.6389 95.3333L59.8611 90.5556C51.3889 82.1389 51.3889 68.4444 59.8333 60ZM74.7778 85.1945L86.25 89.8611L88.1944 87.9167L81.0833 78.8889L74.7778 85.1945ZM167.667 32.3333V73.9167C185.528 73.9167 200 59.4444 200 41.5833C200 23.7222 191.222 15.8333 178.917 11.25L167.667 0V9.25L139.944 23.1111L144.556 32.3611H167.667V32.3333ZM167.667 126.083V167.667H144.556L139.944 176.917L167.667 190.778V200L178.917 188.75C191.222 184.167 200 172.333 200 158.417C200 144.5 185.528 126.083 167.667 126.083ZM32.3333 167.667V126.083C14.4722 126.083 0 140.556 0 158.417C0 176.278 8.77778 184.167 21.0833 188.75L32.3333 200V190.75L60.0556 176.889L55.4444 167.639H32.3333V167.667ZM136.111 65.8611L153.889 49.4722C154.444 48.9722 154.806 48.3333 154.917 47.75C155.028 47.1667 154.917 46.5833 154.528 46.1944L154.167 45.8333L153.806 45.4722C153.417 45.0833 152.861 44.9722 152.25 45.0833C151.639 45.1944 151.028 45.5556 150.528 46.1111L134.139 63.8889L63.8889 134.139L46.1111 150.528C45.5556 151.028 45.1944 151.667 45.0833 152.25C44.9722 152.833 45.0833 153.417 45.4722 153.806L45.8333 154.167L46.1944 154.528C46.5833 154.917 47.1389 155.028 47.75 154.917C48.3611 154.806 48.9722 154.444 49.4722 153.889L65.8611 136.111L136.111 65.8611ZM140.167 140C131.722 148.444 118.056 148.444 109.611 140L107.972 138.361L100 146.306L96.8611 143.167L115.75 124.278L105.861 111.75L112.694 104.917L128.639 111.389L135.361 104.667L140.139 109.444C148.611 117.861 148.611 131.556 140.139 140H140.167ZM125.222 114.806L113.75 110.139L111.806 112.083L118.917 121.111L125.222 114.806Z" fill="white"/>
</g>
</g>
<defs>
<clipPath id="clip0_2_334">
<rect width="200" height="200" fill="white"/>
</clipPath>
</defs>
</svg>
