<svg width="200" height="200" viewBox="0 0 200 200" fill="none" xmlns="http://www.w3.org/2000/svg">
<g clip-path="url(#clip0_2_354)">
<mask id="mask0_2_354" style="mask-type:luminance" maskUnits="userSpaceOnUse" x="0" y="0" width="200" height="200">
<path d="M200 0H0V200H200V0Z" fill="white"/>
</mask>
<g mask="url(#mask0_2_354)">
<path d="M20.3056 20.75C20.1389 20.5833 20.1389 20.3333 20.3056 20.1389C20.4722 19.9722 20.7222 19.9722 20.9167 20.1389C50.3611 48.3333 75.8611 73.1944 96.1111 93.1111V98.8333C77.25 79.6111 52.3056 54.0278 20.2778 20.75H20.3056ZM18.1667 80.2222L16.1389 85.25L13.5833 84.1944L15.6111 79.1667C16.6945 76.4722 18.2222 74.8055 20.1945 74.1389V71.5278H43.2222C54.1667 71.5278 60.6389 80.25 60.6389 94.8333C60.6389 109.417 53.8056 116.722 43.2222 116.722H41.8889C39.5556 116.722 37.6945 118.583 37.6111 120.889C36.7222 120.861 35.9722 120.5 35.3056 119.889C33.25 117.833 32.8056 113.167 32.8056 111.528V107.083H30.0556V111.528C30.0556 111.806 30.0556 118.528 33.3611 121.833C36.6667 125.139 35.9722 123.611 37.6111 123.694V126.778H37.0278C34.3889 126.778 32.2778 125.972 30.6111 124.222C26.4445 119.944 26.6389 111.667 26.6389 111.528V107.083H23.8889V111.472C23.8889 111.861 23.6667 121 28.6389 126.139C30.8056 128.389 33.6667 129.528 37.0556 129.528H37.6389V132.639H36.25C32.1389 132.639 28.6667 131.25 26.0278 128.528C20 122.333 20.1945 111.5 20.2222 111.028V77.25C19.5556 77.7222 18.8611 78.5833 18.1945 80.1944L18.1667 80.2222ZM43.5278 113.972C52.3889 113.806 57.8889 106.5 57.8889 94.8611C57.8889 83.2222 52.6667 74.5278 43.5278 74.3611V113.972ZM36.3333 96.8333H39.0833V74.3056H36.3333V96.8333ZM22.9445 96.8333H33.5278V74.3056H22.9445V96.8333ZM104.139 98.8333C123 79.6111 147.944 54.0278 179.972 20.75C180.139 20.5833 180.139 20.3333 179.972 20.1389C179.806 19.9722 179.556 19.9722 179.361 20.1389C149.917 48.3333 124.417 73.1944 104.167 93.1111V98.8333H104.139ZM186.694 84.1944L184.139 85.25L182.111 80.2222C181.444 78.6389 180.75 77.7222 180.083 77.2778V111.056C180.083 111.528 180.278 122.389 174.278 128.556C171.639 131.278 168.167 132.667 164.056 132.667H162.667V129.556H163.25C166.639 129.556 169.472 128.417 171.667 126.167C176.639 121.028 176.417 111.889 176.417 111.5V107.111H173.667V111.556C173.667 111.667 173.861 119.972 169.694 124.25C168.028 125.972 165.917 126.806 163.278 126.806H162.694V123.722C164.333 123.694 165.778 123.056 166.944 121.861C170.25 118.556 170.25 111.833 170.25 111.556V107.111H167.5V111.556C167.5 113.194 167.083 117.861 165 119.917C164.333 120.583 163.611 120.889 162.694 120.917C162.611 118.611 160.722 116.75 158.417 116.75H157.083C146.5 116.75 139.667 108.139 139.667 94.8611C139.667 81.5833 146.167 71.5556 157.083 71.5556H180.111V74.1667C182.083 74.8333 183.639 76.5278 184.694 79.1944L186.722 84.2222L186.694 84.1944ZM156.694 74.3056C147.583 74.4722 142.333 81.9167 142.333 94.8055C142.333 107.694 147.806 113.75 156.694 113.917V74.3056ZM163.944 74.3056H161.194V96.8333H163.944V74.3056ZM177.278 74.3056H166.694V96.8333H177.278V74.3056ZM18.6389 178.417L21.7778 181.556L35.7778 167.556L32.6389 164.417L18.6389 178.417ZM181.083 165.389C181.083 156.75 174.083 149.778 165.472 149.778C156.861 149.778 158.75 150.944 156.139 152.889L147.194 143.944C143.722 140.472 128.444 125.028 104.083 101V106.917C128.139 131.306 140.5 143.528 144.083 147.056L153.028 156C151 158.694 149.917 161.917 149.917 165.333C149.917 168.75 150.139 168.417 150.583 169.889L167.75 152.722C170.306 153.194 172.694 154.389 174.583 156.25C177 158.667 178.361 161.889 178.361 165.306C178.361 168.722 177.417 170.917 175.722 173.139L163.5 160.917L161.167 163.278L178.972 181.083L181.306 178.722L177.694 175.111C179.861 172.389 181.083 168.972 181.083 165.333V165.389ZM53.0278 143.944L44.8611 152.111C39.6111 148.306 32.2222 148.778 27.4722 153.472L26.5833 154.361L45.6111 173.389L46.5 172.5C51.1667 167.833 51.6667 160.528 47.9722 155.278L56.1389 147.056C59.7222 143.472 72.0834 131.306 96.1389 106.917V101C71.7778 125.056 56.5 140.528 53.0278 143.944ZM113.444 20H101.528V17.1111H104.083V14.5C105.611 14.3333 107.111 13.8889 108.444 13.1111C109.778 12.3333 109.333 11.8611 108.944 11.1944C108.556 10.5278 107.694 10.3056 107.028 10.6944C106.083 11.25 105 11.5833 103.944 11.6944C103.667 9.75 102.667 8.08333 101.25 6.86111V0H95.5834V5.02778H85.0833V10H95.5834V13.0833C95.5834 13.6389 95.9445 14.0556 96.4445 14.2222C97.7222 14.6111 98.6667 15.7778 98.6667 17.1667V20.0556H86.75C89.0833 24.4444 93.4722 27.5278 98.6667 28C98.7778 79.0278 98.8334 139.139 99.6111 188.639C99.6945 192.361 99.8056 196.139 99.9167 199.889C99.9167 199.972 100 200.056 100.083 200.056C100.167 200.056 100.25 199.972 100.25 199.889C100.361 196.167 100.472 192.389 100.556 188.639C101.333 139.167 101.361 79.0556 101.5 28C106.722 27.5 111.111 24.4167 113.444 20.0278V20Z" fill="white"/>
</g>
</g>
<defs>
<clipPath id="clip0_2_354">
<rect width="200" height="200" fill="white"/>
</clipPath>
</defs>
</svg>
