<svg width="200" height="200" viewBox="0 0 200 200" fill="none" xmlns="http://www.w3.org/2000/svg">
<g clip-path="url(#clip0_2_273)">
<mask id="mask0_2_273" style="mask-type:luminance" maskUnits="userSpaceOnUse" x="0" y="0" width="200" height="200">
<path d="M200 0H0V200H200V0Z" fill="white"/>
</mask>
<g mask="url(#mask0_2_273)">
<path d="M124.083 75.9167C123.556 75.3889 123 74.8889 122.444 74.4167L147.528 49.3333L150.667 52.4722L125.583 77.5556C125.111 77 124.611 76.4444 124.083 75.9167ZM6.11111 9.27778C6.11111 4.80556 7.25 0 10.5 0H189.5C192.75 0 193.889 4.80556 193.889 9.27778C193.889 13.75 192.722 18.5556 189.472 18.5556H184.556L170.194 32.9167L188.583 51.3056L185.444 54.4444L149.556 18.5556H50.4444L14.5556 54.4722L11.3889 51.3333L29.7778 32.9444L15.4167 18.5556H10.5C7.25 18.5556 6.11111 13.7778 6.11111 9.27778ZM44.1667 18.5556H21.6944L32.9167 29.7778L44.1667 18.5556ZM178.306 18.5556H155.833L167.056 29.7778L178.306 18.5556ZM8.88889 9.27778C8.88889 13.5 10.0556 15.7778 10.5278 15.7778H189.528C190 15.7778 191.167 13.5 191.167 9.27778C191.167 5.05556 189.972 2.77778 189.5 2.77778H10.5C10.0278 2.77778 8.88889 5.05556 8.88889 9.27778ZM200 58.2222V40.8333H182.028L186.472 45.2778H195.556V58.2222H196.389V141.75H195.556V154.722H186.472L182.028 159.167H200V141.778H199.167V58.2222H200ZM46.3611 26.5833H153.611L173.417 46.3889V153.639L153.611 173.444H46.3611L26.5556 153.639V46.3611L46.3611 26.5833ZM43.0556 43.0556V156.944H156.944V43.0556H43.0556ZM13.5278 154.722H4.44444V141.778H3.61111V58.2222H4.44444V45.2778H13.5278L17.9722 40.8333H0V58.2222H0.833333V141.75H0V159.167H17.9722L13.5278 154.722ZM77.5556 125.583C77 125.111 76.4444 124.611 75.9167 124.083C75.3889 123.556 74.8889 123 74.4167 122.444L49.3333 147.528L52.4722 150.667L77.5556 125.583ZM193.889 190.722C193.889 195.222 192.722 200 189.472 200H10.5C7.25 200 6.11111 195.194 6.11111 190.722C6.11111 186.25 7.27778 181.444 10.5278 181.444H15.4444L29.8056 167.083L11.4167 148.694L14.5556 145.556L50.4722 181.472H149.556L185.472 145.556L188.611 148.694L170.222 167.083L184.583 181.444H189.5C192.75 181.444 193.889 186.222 193.889 190.722ZM155.833 181.444H178.306L167.083 170.222L155.833 181.444ZM21.6944 181.444H44.1667L32.9444 170.222L21.6944 181.444ZM191.111 190.722C191.111 186.5 189.944 184.222 189.472 184.222H10.5C10.0278 184.222 8.86111 186.5 8.86111 190.722C8.86111 194.944 10.0278 197.222 10.5 197.222H189.5C189.972 197.222 191.111 194.944 191.111 190.722ZM92.6111 128.222C101.111 128.222 108.417 123.139 111.667 115.833C110.278 116.083 108.861 116.222 107.389 116.222C105.917 116.222 106.75 116.222 106.444 116.194C103.528 120.75 98.4167 123.778 92.6111 123.778C83.5556 123.778 76.2222 116.444 76.2222 107.389C76.2222 98.3333 79.25 96.4722 83.8056 93.5556C83.8056 93.25 83.7778 92.9167 83.7778 92.6111C83.7778 91.1389 83.9167 89.7222 84.1667 88.3333C76.8611 91.5833 71.7778 98.8889 71.7778 107.389C71.7778 115.889 81.1111 128.222 92.6111 128.222ZM108.972 106.139C110.5 105.972 111.972 105.528 113.306 104.889C112.167 95.3889 104.611 87.8333 95.1111 86.6945C94.4722 88.0278 94.0278 89.5 93.8611 91.0278C101.917 91.6389 108.361 98.0833 108.972 106.139ZM86.5278 92.6111C86.5278 81.1111 95.8611 71.7778 107.361 71.7778C118.861 71.7778 128.194 81.1111 128.194 92.6111C128.194 104.111 118.861 113.444 107.361 113.444C95.8611 113.444 86.5278 104.111 86.5278 92.6111ZM90.9722 92.6111C90.9722 101.667 98.3056 109 107.361 109C116.417 109 123.75 101.667 123.75 92.6111C123.75 83.5556 116.417 76.2222 107.361 76.2222C98.3056 76.2222 90.9722 83.5556 90.9722 92.6111Z" fill="white"/>
</g>
</g>
<defs>
<clipPath id="clip0_2_273">
<rect width="200" height="200" fill="white"/>
</clipPath>
</defs>
</svg>
