<svg width="200" height="200" viewBox="0 0 200 200" fill="none" xmlns="http://www.w3.org/2000/svg">
<g clip-path="url(#clip0_2_250)">
<mask id="mask0_2_250" style="mask-type:luminance" maskUnits="userSpaceOnUse" x="0" y="0" width="200" height="200">
<path d="M200 0H0V200H200V0Z" fill="white"/>
</mask>
<g mask="url(#mask0_2_250)">
<path d="M122.917 9.13889C119.278 6.80556 115.972 4.19444 112.472 0H87.6111C84.1111 4.22222 80.8056 6.83333 77.1667 9.13889L67.5833 15.25L56.4722 53.3333L21.5833 18.4167L18.4167 21.5833L48.4167 51.5833L0 100L48.4167 148.417L18.4167 178.417L21.5556 181.556L56.3889 146.722L67.5 184.75L77.0833 190.861C80.3611 192.944 83.3611 195.472 86 198.306L105.917 139.333H81.1944L79.9722 131.306H92.3611L94.3333 133.278L112.222 115.389L117.889 121.056L107.639 131.333H119.944L118.722 139.361H110.611L90.1389 200H109.806L102.333 177.806L104.667 170.861L113.917 198.306C116.556 195.444 119.556 192.944 122.833 190.861L132.417 184.75L143.528 146.667L178.444 181.583L181.583 178.444L151.583 148.444L200 100L151.583 51.5833L181.583 21.5833L178.444 18.4444L143.583 53.2778L132.5 15.25L122.917 9.13889ZM71.3889 18.1111L79.5556 12.8889C82.5 11.0278 85.1945 8.86111 87.6945 6.41667L95.3611 29.1111L97.6945 22.1667L91.7222 4.44444H108.389L89.4167 60.6667H81.3056L80.0833 68.6944H92.3889L82.1389 78.9445L75.1111 71.9167L79.4167 43.6944L76.6667 43.2778L72.6945 69.4722L60.1111 56.8889L71.3889 18.1111ZM51.5833 145.278L6.30556 100L51.5833 54.7222L72.4444 75.5833L48 100L72.4167 124.417L51.5833 145.278ZM76.5278 156.694L72.5556 130.583L75 128.139L79.2778 156.278L76.5278 156.694ZM74.3889 122.472L51.9444 100L74.3889 77.5278L96.8611 100L74.3889 122.472ZM92.3611 131.306L82.1111 121.056L87.7778 115.389L98.0278 125.639L92.3611 131.306ZM100 96.8611L87.7778 84.6389L105.667 66.75L107.639 68.7222H120.028L118.806 60.6944H94.0833L112.389 6.44444C114.861 8.86111 117.583 11.0556 120.528 12.9167L128.694 18.1389L140 56.8611L127.444 69.4167L123.472 43.3056L120.722 43.7222L125 71.8611L117.889 78.9722L107.639 68.7222L101.972 74.3889L112.222 84.6389L100 96.8611ZM103.139 100L125.583 77.5556L148.056 100L125.611 122.444L103.139 100ZM123.389 156.694L120.639 156.278L124.917 128.056L127.361 130.5L123.389 156.694ZM127.556 124.417L151.972 100L127.556 75.5833L148.417 54.7222L193.694 100L148.417 145.278L127.556 124.417Z" fill="white"/>
</g>
</g>
<defs>
<clipPath id="clip0_2_250">
<rect width="200" height="200" fill="white"/>
</clipPath>
</defs>
</svg>
