<svg width="200" height="200" viewBox="0 0 200 200" fill="none" xmlns="http://www.w3.org/2000/svg">
<g clip-path="url(#clip0_2_322)">
<mask id="mask0_2_322" style="mask-type:luminance" maskUnits="userSpaceOnUse" x="0" y="0" width="200" height="200">
<path d="M200 0H0V200H200V0Z" fill="white"/>
</mask>
<g mask="url(#mask0_2_322)">
<path d="M79.6389 38.5556H79.8333C80.9167 44.5278 85.4722 49.3056 91.3611 50.6944L93.1389 51.1111C95.3889 51.6389 97.6945 51.9167 100.028 51.9167C102.361 51.9167 104.667 51.6389 106.917 51.1111L108.694 50.6944C114.556 49.3056 119.111 44.5278 120.222 38.5556H120.417C122.25 38.5556 123.75 37.0556 123.75 35.2222V23.3333C123.75 21.5 122.25 20 120.417 20C120.222 17.1389 119.556 13.8611 118.472 11.6111C118.111 10.8889 117.389 10.4444 116.583 10.3889C113.583 4.25 107.278 0 100 0C92.7222 0 86.4167 4.25 83.4444 10.3889C82.6389 10.3889 81.9167 10.8889 81.5556 11.6111C80.4722 13.8611 79.8056 17.1389 79.6111 20C77.7778 20 76.2778 21.5 76.2778 23.3333V35.2222C76.3056 37.0556 77.7778 38.5556 79.6389 38.5556ZM89.5278 19.4722C90.0278 19.4722 90.5 19.4722 91 19.5278L95.0833 20.0278C96.7222 20.2222 98.3611 20.3333 100 20.3333C101.639 20.3333 103.278 20.2222 104.917 20.0278L109 19.5278C109.5 19.4722 109.972 19.4444 110.472 19.4722C112.778 19.6389 115.056 20.0278 117.278 20.6111L116.278 29.8056C115 35.8333 114.806 42.5278 106.667 46.3889C105.889 46.75 105.361 47.5 105.306 48.3333V48.5833C101.833 49.2778 98.1667 49.2778 94.6944 48.5833V48.3333C94.6389 47.5 94.1111 46.75 93.3333 46.3889C85.1944 42.5278 85 35.8333 83.7222 29.8056L82.7222 20.6111C84.9444 20.0278 87.2222 19.6389 89.5278 19.4722ZM120.361 161.444H120.167C119.083 155.472 114.528 150.694 108.639 149.306L106.861 148.889C102.389 147.833 97.5556 147.833 93.0833 148.889L91.3056 149.306C85.4445 150.694 80.8889 155.472 79.7778 161.444H79.5833C77.75 161.444 76.25 162.944 76.25 164.778V176.667C76.25 178.5 77.75 180 79.5833 180C79.7778 182.861 80.4444 186.139 81.5278 188.389C81.8889 189.111 82.6111 189.556 83.4167 189.611C86.3889 195.75 92.6667 200 99.9722 200C107.278 200 113.556 195.75 116.528 189.611C117.333 189.611 118.056 189.111 118.417 188.389C119.5 186.139 120.167 182.861 120.361 180C122.194 180 123.694 178.5 123.694 176.667V164.778C123.694 162.944 122.222 161.444 120.361 161.444ZM110.472 180.528C109.972 180.528 109.5 180.528 109 180.472L104.917 179.972C103.278 179.778 101.639 179.667 100 179.667C98.3611 179.667 96.7222 179.778 95.0833 179.972L91 180.472C90.5 180.528 90.0278 180.556 89.5278 180.528C87.2222 180.361 84.9444 179.972 82.7222 179.389L83.7222 170.194C85 164.167 85.1944 157.472 93.3333 153.611C94.1111 153.25 94.6389 152.5 94.6944 151.667V151.417C98.1667 150.722 101.833 150.722 105.306 151.417V151.667C105.361 152.5 105.889 153.25 106.667 153.611C114.806 157.472 115 164.167 116.278 170.194L117.278 179.389C115.056 179.972 112.778 180.361 110.472 180.528ZM130.389 89.6667H133.167V110.333H130.389V89.6667ZM69.6111 110.333H66.8333V89.6667H69.6111V110.333ZM200 100L151.583 51.5833L181.583 21.5833L178.444 18.4444L131.833 65L119.556 52.7222H110.639L110.306 53.6389C108.75 57.9722 104.611 60.8889 100 60.8889C95.3889 60.8889 91.25 57.9722 89.6944 53.6389L89.3611 52.7222H80.4444L68.1667 65L21.5833 18.4167L18.4167 21.5833L48.4167 51.5833L0 100L48.4167 148.417L18.4167 178.417L21.5556 181.556L68.1667 135L80.4444 147.278H89.3611L89.6944 146.361C91.25 142.028 95.3889 139.111 100 139.111C104.611 139.111 108.75 142.028 110.306 146.361L110.639 147.278H119.556L131.833 135L178.417 181.583L181.556 178.444L151.556 148.444L200 100ZM96.8611 100L66.9722 129.889L55.5278 118.444V81.5833L66.9722 70.1389L96.8611 100ZM103.139 100L133.028 70.1111L144.472 81.5556V118.417L133.028 129.861L103.139 100ZM81.5833 55.5278H87.4444C89.6389 60.4722 94.5556 63.7222 100 63.7222C105.444 63.7222 110.389 60.4722 112.556 55.5278H118.417L129.861 66.9722H70.1111L81.5833 55.5278ZM51.5833 145.278L6.30556 100L51.5833 54.7222L65.0278 68.1667L52.75 80.4444V119.583L65.0278 131.861L51.5833 145.278ZM118.417 144.472H112.556C110.361 139.528 105.444 136.278 100 136.278C94.5556 136.278 89.6389 139.528 87.4444 144.472H81.5833L70.1389 133.028H129.889L118.417 144.472ZM147.25 119.583V80.4167L134.972 68.1389L148.417 54.6944L193.694 100L148.417 145.278L135 131.833L147.25 119.583Z" fill="white"/>
</g>
</g>
<defs>
<clipPath id="clip0_2_322">
<rect width="200" height="200" fill="white"/>
</clipPath>
</defs>
</svg>
