<svg width="200" height="200" viewBox="0 0 200 200" fill="none" xmlns="http://www.w3.org/2000/svg">
<g clip-path="url(#clip0_2_340)">
<mask id="mask0_2_340" style="mask-type:luminance" maskUnits="userSpaceOnUse" x="0" y="0" width="200" height="200">
<path d="M200 0H0V200H200V0Z" fill="white"/>
</mask>
<g mask="url(#mask0_2_340)">
<path d="M106.556 70.3889L126.889 90.7222L124.222 91.9722L103.889 71.6389L106.556 70.3889ZM96.3611 64.1111L99.0278 62.8611L86.2778 50.1111L84.3056 52.0833L96.3611 64.1111ZM115.722 55.0833L85.6944 25.0556L83.7222 27.0278L113.028 56.3333L115.722 55.0833ZM143.583 82.9444L123.25 62.6111L120.583 63.8611L140.917 84.1944L143.583 82.9444ZM131.75 99.5L147.917 115.667L149.889 113.694L134.444 98.25L131.75 99.5ZM174.944 114.306L151.111 90.4722L148.444 91.7222L173 116.278L174.944 114.306ZM160.278 75.1667L139.944 54.8333L137.278 56.0833L157.611 76.4167L160.278 75.1667ZM165.111 83.9444L198.028 116.861L200 114.889L167.806 82.6944L165.111 83.9444ZM132.389 47.3056L85.1111 0L83.1389 1.97222L129.722 48.5556L132.389 47.3056ZM91.9722 124.222L71.6389 103.889L70.3889 106.556L90.7222 126.889L91.9722 124.222ZM99.5 131.75L98.25 134.417L113.694 149.861L115.667 147.889L99.5 131.75ZM54.8333 139.917L75.1667 160.25L76.4167 157.583L56.0833 137.25L54.8333 139.917ZM62.6111 123.25L82.9445 143.583L84.1945 140.917L63.8611 120.583L62.6111 123.25ZM90.4722 151.111L114.306 174.944L116.278 172.972L91.75 148.444L90.4722 151.111ZM64.1111 96.3611L52.0833 84.3333L50.1111 86.3056L62.8611 99.0556L64.1111 96.3611ZM82.6945 167.806L114.889 200L116.861 198.028L83.9445 165.111L82.6945 167.806ZM48.5556 129.722L1.97222 83.1389L0 85.1111L47.3056 132.417L48.5556 129.722ZM25.0556 85.6944L55.0833 115.722L56.3333 113.056L27.0278 83.7222L25.0556 85.6944ZM200 74.5278L197.556 76.2222C193.139 79.25 188.278 81.5278 183.083 82.9722L180.611 83.6667L178.333 82.3889C175.722 80.9167 172.861 79.8611 169.917 79.3333L168.944 79.1667L116.139 103.778L123.417 111.056C138.056 125.694 151.917 141.389 164.611 157.722L179.694 177.083C180.278 177.833 180.222 178.917 179.528 179.583C179.167 179.944 178.667 180.139 178.167 180.139C177.667 180.139 177.361 180 177 179.75L157.389 164.583C141.194 151.972 125.611 138.222 111.083 123.694L103.639 116.25L79.0278 169L79.1944 169.972C79.75 172.944 80.7778 175.778 82.25 178.389L83.5278 180.667L82.8333 183.139C81.3889 188.306 79.1389 193.167 76.0833 197.611L74.3889 200.056L73.0556 199.889C69.4722 199.472 66.0556 197.889 63.4167 195.389L62.4722 194.5L63.0278 192.222C64.9722 184.222 68.3333 176.722 73.0556 169.972L74.7222 167.583L100.222 112.889L76.4722 89.1389C76.2222 88.8889 75.9722 88.6111 75.6944 88.3611L48.75 146.111L48.9167 147.083C49.4722 150.056 50.5 152.889 51.9722 155.5L53.25 157.778L52.5556 160.25C51.1111 165.417 48.8611 170.278 45.8056 174.722L44.1111 177.167L42.7778 177C39.1944 176.583 35.7778 175 33.1389 172.5L32.1944 171.611L32.75 169.333C34.6944 161.333 38.0556 153.833 42.7778 147.083L44.4444 144.694L72.3056 84.9722C59.1944 71.5555 46.75 57.3056 35.25 42.5L20.1667 23.0556C19.5833 22.3056 19.6389 21.2222 20.3333 20.5556C21 19.8889 22.0833 19.8056 22.8333 20.3889L42.4444 35.6389C57.1667 47.0833 71.3333 59.5 84.6944 72.5556L144.472 44.6667L146.861 43C153.639 38.3056 161.111 34.9444 169.111 32.9722L171.389 32.4167L172.278 33.3611C174.75 35.9722 176.361 39.4167 176.778 43L176.944 44.3333L174.5 46.0278C170.083 49.0556 165.222 51.3333 160.028 52.7778L157.556 53.4722L155.278 52.1944C152.667 50.7222 149.806 49.6667 146.861 49.1389L145.889 48.9722L88.0833 75.9167C88.2778 76.1111 88.5 76.3333 88.7222 76.5278L112.639 100.444L167.389 74.9167L169.778 73.25C176.556 68.5556 184.028 65.1944 192.028 63.2222L194.306 62.6667L195.194 63.6111C197.667 66.2222 199.278 69.6667 199.694 73.25L200 74.5278ZM78.7778 71.7778C77.4444 70.4444 74.4444 68 71.1944 65.9167C67.9444 63.8056 64.4722 62.0833 62.1667 62.1667C62.1667 64.5278 63.8889 68.0278 65.9167 71.3056C67.9722 74.5556 70.3333 77.5833 71.6389 78.9167L95 101.889L101.861 95.0278L78.7778 71.7778ZM121.111 128.361C122.472 129.667 125.472 132.056 128.722 134.083C131.972 136.139 135.5 137.833 137.861 137.833C137.944 135.528 136.194 132.028 134.111 128.806C132 125.556 129.556 122.556 128.25 121.222L105 98.1389L98.1389 105L121.111 128.361Z" fill="white"/>
</g>
</g>
<defs>
<clipPath id="clip0_2_340">
<rect width="200" height="200" fill="white"/>
</clipPath>
</defs>
</svg>
