<svg width="200" height="200" viewBox="0 0 200 200" fill="none" xmlns="http://www.w3.org/2000/svg">
<g clip-path="url(#clip0_2_267)">
<mask id="mask0_2_267" style="mask-type:luminance" maskUnits="userSpaceOnUse" x="0" y="0" width="200" height="200">
<path d="M200 0H0V200H200V0Z" fill="white"/>
</mask>
<g mask="url(#mask0_2_267)">
<path d="M28.0833 36.75L26.1111 34.7778C38.25 22.6667 45.6944 11.5556 53.1389 0H56.4444C48.9167 11.7222 41 23.8056 28.0833 36.75ZM42.1389 50.7778C55.7222 37.3889 64.7222 23.7222 73.4722 10.4444C75.75 7 78.0556 3.5 80.4444 0H77.0833C75.0556 3 73.1111 5.97222 71.1667 8.91667C62.1111 22.6667 53.4722 35.75 40.1944 48.8333L42.1389 50.7778ZM68.25 76.9167L70.2222 78.8889C84.4167 65.2778 95.5278 49.0556 106.306 33.2778C113.972 22.0556 121.806 10.5833 130.806 0H127.194C118.75 10.1667 111.306 21.0556 104 31.6944C93.3056 47.3611 82.2778 63.4722 68.25 76.9167ZM54.2222 62.8611L56.1944 64.8333C70.0833 51.3333 80.1111 36.3889 89.8889 21.8889C94.75 14.6389 99.7222 7.27778 105.194 0.0277778H101.722C96.6944 6.77778 92.1111 13.6111 87.5833 20.3611C77.8889 34.7222 67.9167 49.5556 54.2222 62.8611ZM88.5278 139.333C88.9444 139.444 89.3611 139.611 89.7222 139.833C90.1667 140.111 90.5556 140.417 90.9167 140.75C99.1944 129.306 107.917 118.278 117.667 109.028L115.694 107.056C105.778 116.528 96.9167 127.722 88.5278 139.333ZM130.167 25.6111C128.361 28.0833 110.306 52.1667 110.306 52.1667C109.139 54.0833 109.75 56.6111 111.694 57.7778C112.528 58.2778 113.639 58.0278 114.139 57.1667L120.167 47.1944L130.083 57.1111C121.944 66.0833 106.417 84.1389 102.139 96C126.861 76.3056 148.5 47.7778 167.667 22.5556C159.556 27.75 146.306 39.7222 133.111 53.8611L122.556 43.3056L129.583 31.6944C130.417 30.3333 132.194 29.8889 133.556 30.7222L136.639 25.5556C134.444 24.2222 131.917 23.2222 130.167 25.6111ZM110.278 60.1667C109.833 59.8889 109.444 59.5833 109.083 59.25C100.806 70.6944 92.0833 81.7222 82.3333 90.9722L84.3056 92.9445C94.2778 83.5 103.111 72.3056 111.5 60.6944C111.056 60.5556 110.639 60.3889 110.278 60.1667ZM157.583 0H153.694C147.25 6.72222 141.25 14.1667 135.5 21.9167C136.444 22.25 137.306 22.7222 138.028 23.1667C144.194 14.9167 150.639 7 157.583 0ZM157.861 149.222C144.278 162.611 135.278 176.278 126.528 189.556C124.25 193 121.944 196.5 119.556 200H122.917C124.944 197 126.889 194.028 128.833 191.083C137.889 177.333 146.528 164.25 159.806 151.167L157.861 149.222ZM131.75 123.083L129.778 121.111C115.583 134.722 104.472 150.944 93.6944 166.722C86.0278 177.944 78.1944 189.417 69.1944 200H72.8056C81.25 189.833 88.6944 178.944 96 168.306C106.694 152.639 117.722 136.528 131.75 123.083ZM143.556 200H146.861C154.306 188.444 161.75 177.333 173.861 165.222L171.889 163.25C159 176.194 151.083 188.278 143.556 200ZM145.778 137.139L143.806 135.167C129.917 148.667 119.889 163.611 110.111 178.111C105.25 185.361 100.278 192.722 94.8055 199.972H98.2778C103.306 193.222 107.889 186.389 112.417 179.639C122.111 165.278 132.083 150.444 145.778 137.139ZM28.8056 174.75C27.3889 176.639 25.9722 178.472 24.5833 180.306C24.0556 180.222 23.5556 180.056 23.0833 179.75L21.2222 178.5L22.4722 176.667C43.2778 146.278 62.5278 123.056 80.9722 106.194L77.9444 103.167C71.3056 109.806 50.3056 129.722 27.5556 140.917L26.4167 141.472L25.75 140.389C9.44444 113.306 3.47222 82.7222 1.30556 61.8611C-1.02778 39.2778 0.500001 22.8056 0.500001 22.6389L0.777779 19.6944L84.2778 103.194C87.25 100.583 90.1944 98.1389 93.1111 95.8611L94.6389 94.6667L98.1389 98.0556L96.6111 99.25C70.8333 119.361 48.5 148.806 28.8056 174.75ZM60.3333 85.5556L2.94445 28.1667C2.66667 34.6944 2.52778 46.8333 4.05556 61.6389C6.08333 81.25 11.5556 109.5 25.9167 135.167C40.2778 109.528 55.2778 91.3611 60.3333 85.5556ZM75.9722 101.194L62.2778 87.5C57.1111 93.4722 42 111.861 27.6667 137.722C49.5833 126.611 69.5833 107.583 75.9722 101.194ZM42.4167 200H46.3056C52.75 193.278 58.75 185.833 64.5 178.083C63.5556 177.75 62.6944 177.278 61.9722 176.833C55.8056 185.083 49.3611 193 42.4167 200ZM69.8333 174.389C71.6389 171.917 89.6944 147.833 89.6944 147.833C90.8611 145.917 90.25 143.389 88.3056 142.222C87.4722 141.722 86.3611 141.972 85.8611 142.833L79.8056 152.778L69.8889 142.861C78.0278 133.889 93.5556 115.833 97.8333 103.972C73.1389 123.694 51.5 152.222 32.3333 177.444C40.4444 172.25 53.6944 160.278 66.8889 146.139L77.4444 156.694L70.4167 168.333C69.5833 169.694 67.8055 170.139 66.4444 169.306L63.3611 174.444C65.5556 175.778 68.0833 176.778 69.8333 174.389ZM199.5 177.333L199.222 180.278L115.722 96.7778C112.75 99.3889 109.806 101.833 106.889 104.111L105.361 105.306L101.861 101.917L103.389 100.722C129.167 80.6389 151.5 51.1944 171.194 25.2222C172.611 23.3333 174.028 21.5 175.417 19.6667C175.944 19.75 176.444 19.9167 176.917 20.2222L178.778 21.4722L177.528 23.3056C156.722 53.6944 137.472 76.9167 119.028 93.7778L122.056 96.8056C128.694 90.1667 149.694 70.25 172.444 59.0556L173.583 58.5L174.25 59.5833C190.528 86.6667 196.528 117.222 198.694 138.111C201.028 160.722 199.5 177.194 199.5 177.333ZM139.667 114.444L197.028 171.806C197.306 165.278 197.444 153.139 195.917 138.333C193.889 118.722 188.417 90.4722 174.056 64.8056C159.722 90.4722 144.722 108.639 139.667 114.444ZM124.028 98.8056L137.722 112.5C142.889 106.528 158 88.1389 172.333 62.2778C150.417 73.3889 130.389 92.4167 124.028 98.8056Z" fill="white"/>
</g>
</g>
<defs>
<clipPath id="clip0_2_267">
<rect width="200" height="200" fill="white"/>
</clipPath>
</defs>
</svg>
