<svg width="200" height="200" viewBox="0 0 200 200" fill="none" xmlns="http://www.w3.org/2000/svg">
<g clip-path="url(#clip0_2_257)">
<mask id="mask0_2_257" style="mask-type:luminance" maskUnits="userSpaceOnUse" x="-41" y="-41" width="282" height="282">
<path d="M240.078 -40.0778H-40.0778V240.078H240.078V-40.0778Z" fill="white"/>
</mask>
<g mask="url(#mask0_2_257)">
<path d="M200 100L196.226 99.0272C192.763 98.1323 191.051 95.9144 189.883 90.7782L189.805 90.3502C188.171 83.8521 183.658 79.4942 176.732 77.7432C171.595 76.4591 167.626 72.4514 166.342 67.2763L165.914 65.6031C164.475 59.8833 160.078 55.4864 154.358 54.0856C153.035 53.7743 151.79 53.1907 150.661 52.4125L181.556 21.5175L178.405 18.3658L100 96.8482L21.5564 18.4436L18.4047 21.5953L48.4047 51.5953L0 100L3.77432 100.973C7.23735 101.868 8.94942 104.086 10.1167 109.222L10.1946 109.65C11.8288 116.148 16.3424 120.506 23.2685 122.257C28.4047 123.541 32.3735 127.549 33.6576 132.724L34.0856 134.397C35.5253 140.117 39.9222 144.514 45.642 145.914C46.965 146.226 48.2101 146.809 49.3385 147.588L18.4436 178.483L21.5953 181.634L100 103.152L178.444 181.595L181.595 178.444L151.595 148.444L200 100ZM52.4903 144.358C50.7782 143.035 48.7938 142.062 46.6537 141.556C42.5681 140.584 39.4163 137.393 38.3658 133.307L37.9377 131.634C36.2646 124.903 31.0506 119.65 24.3191 117.938C18.9883 116.615 15.7198 113.463 14.4747 108.599L14.3969 108.249C13.5409 104.397 12.0623 100.35 8.21012 98.0156L51.5175 54.7082L61.4008 64.5914L24.4747 101.518L22.1012 99.144L20.1167 101.128L26.8482 107.821L28.8327 105.837L26.4591 103.463L63.3852 66.537L73.2296 76.3813L36.3035 113.307L33.93 110.934L31.9455 112.918L38.6381 119.611L40.6226 117.626L38.249 115.253L75.1751 78.3269L85.0195 88.1712L48.0934 125.097L45.7198 122.724L43.7354 124.708L50.428 131.401L52.4124 129.416L50.0389 127.043L86.965 90.1167L96.8482 100L52.4903 144.358ZM138.56 135.447L175.486 98.5214L177.86 100.895L179.844 98.9105L173.152 92.179L171.167 94.1634L173.541 96.537L136.615 133.463L126.77 123.619L163.697 86.6926L166.07 89.0661L168.054 87.0817L161.362 80.3891L159.377 82.3735L161.751 84.7471L124.825 121.673L114.981 111.829L151.907 74.9027L154.28 77.2763L156.265 75.2918L149.572 68.5992L147.588 70.5837L149.961 72.9572L113.035 109.883L103.152 100L147.51 55.642C149.222 56.965 151.206 57.9377 153.346 58.4436C157.432 59.4163 160.584 62.607 161.634 66.6926L162.062 68.3658C163.735 75.0973 168.949 80.3502 175.681 82.0623C180.973 83.3852 184.28 86.537 185.525 91.4008L185.603 91.751C186.459 95.6031 187.938 99.6498 191.79 101.984L148.444 145.292L138.56 135.447ZM113.619 41.323C112.724 42.2179 112.957 42.8405 113.23 43.2685L113.307 43.4241C115.292 46.6926 110.778 51.8288 105.525 54.9805C105.253 55.1362 104.942 55.3307 104.669 55.4864V42.4903C107.004 41.7121 109.222 41.4397 110.895 41.8288C111.051 41.1284 111.44 40.428 112.062 39.8055C112.685 39.1829 113.385 38.7938 114.086 38.6381C113.385 35.6809 114.825 31.0895 117.16 27.2374C118.405 25.1362 119.961 23.1907 121.595 21.7121V39.8833C119.494 41.4397 117.393 42.1012 115.72 41.0895L115.564 41.0117C115.175 40.7004 114.514 40.4669 113.619 41.323ZM72.5681 28.3658C71.4008 21.1673 73.7354 15.2529 80.6615 8.36576C87.5875 1.43969 93.463 -0.856026 100.661 0.272379C113.813 2.37355 125.058 14.0856 129.494 20.0778C131.673 22.607 130.117 28.4825 127.276 33.2296C126.42 34.6304 125.447 35.9922 124.358 37.1984V19.6498C117.315 17.8988 107.977 21.0895 100.661 28.3658C93.3463 35.6809 90.1946 45.0195 91.9455 52.0623C93.2685 49.4942 96.2257 46.8093 99.4942 44.8638C100.272 44.3969 101.089 43.9689 101.907 43.5798V56.8093C98.0934 58.3658 94.3191 58.8327 92.3735 57.2374C86.3813 52.7627 74.6693 41.5175 72.5681 28.3658ZM127.432 171.634C128.599 178.833 126.265 184.747 119.339 191.634C112.412 198.56 106.537 200.856 99.3385 199.728C86.1868 197.626 74.9416 185.914 70.5058 179.922C68.3268 177.393 69.8833 171.518 72.7237 166.77C73.5798 165.37 74.5525 164.008 75.642 162.802V180.35C82.6848 182.101 92.0233 178.911 99.3385 171.634C106.654 164.319 109.805 154.981 108.054 147.938C106.732 150.506 103.774 153.191 100.506 155.136C99.7276 155.603 98.9105 156.031 98.0934 156.42V143.191C101.907 141.634 105.681 141.167 107.626 142.763C113.619 147.237 125.331 158.483 127.432 171.634ZM86.3813 158.677C87.2763 157.782 87.0428 157.16 86.7704 156.732L86.6926 156.576C84.7082 153.307 89.2218 148.171 94.4747 145.019C94.7471 144.864 95.0584 144.669 95.3307 144.514V157.51C92.9961 158.288 90.7782 158.56 89.1051 158.171C88.9494 158.872 88.5603 159.572 87.9377 160.195C87.3152 160.817 86.6148 161.206 85.9144 161.362C86.6148 164.319 85.1751 168.911 82.8405 172.763C81.5953 174.864 80.0389 176.809 78.4047 178.288V160.117C80.5058 158.56 82.607 157.899 84.2802 158.911L84.4358 158.988C84.8638 159.3 85.5253 159.533 86.3813 158.677Z" fill="white"/>
</g>
</g>
<defs>
<clipPath id="clip0_2_257">
<rect width="200" height="200" fill="white"/>
</clipPath>
</defs>
</svg>
