<svg width="200" height="200" viewBox="0 0 200 200" fill="none" xmlns="http://www.w3.org/2000/svg">
<g clip-path="url(#clip0_2_303)">
<mask id="mask0_2_303" style="mask-type:luminance" maskUnits="userSpaceOnUse" x="0" y="0" width="200" height="200">
<path d="M200 0H0V200H200V0Z" fill="white"/>
</mask>
<g mask="url(#mask0_2_303)">
<path d="M178.444 18.4444L150.5 46.3611L153.639 49.5L181.583 21.5833L178.444 18.4444Z" fill="white"/>
<path d="M13.8333 47.1667C17.4167 50.75 21.8889 52.9444 26.5555 53.7222L53.75 26.5278C52.9722 21.8889 50.7778 17.4167 47.1944 13.8333L42.6944 9.33333C33.4722 0.138889 18.5278 0.138889 9.33332 9.33333C0.138873 18.5278 0.111094 33.4722 9.33332 42.6667L13.8333 47.1667ZM18.5833 21.5C22.5278 21.5 25.7222 24.6944 25.7222 28.6389C25.7222 32.5833 22.5278 35.7778 18.5833 35.7778C14.6389 35.7778 11.4444 32.5833 11.4444 28.6389C11.4444 24.7222 14.6389 21.5 18.5833 21.5Z" fill="white"/>
<path d="M54 32.5556L32.5833 53.9722C34.9722 53.75 37.3611 53.1944 39.6111 52.25C41.6944 51.4167 44.1111 51.9444 45.6944 53.5556L57.4166 65.2778C58.6389 66.5 60.5833 66.5 61.8055 65.2778L65.25 61.8333C66.4722 60.6111 66.4722 58.6667 65.25 57.4444L53.5555 45.75C51.9444 44.1389 51.4166 41.75 52.25 39.6389C53.2222 37.3333 53.8055 34.9722 54 32.5556Z" fill="white"/>
<path d="M46.3611 150.528L18.4167 178.444L21.5556 181.583L49.5 153.667L46.3611 150.528Z" fill="white"/>
<path d="M146 167.444L167.417 146.028C165.028 146.25 162.639 146.806 160.389 147.75C158.306 148.583 155.889 148.056 154.306 146.444L142.583 134.722C141.361 133.5 139.417 133.5 138.194 134.722L134.75 138.167C133.528 139.389 133.528 141.333 134.75 142.556L146.444 154.25C148.056 155.861 148.583 158.25 147.75 160.361C146.778 162.667 146.222 165.028 146 167.444Z" fill="white"/>
<path d="M186.167 152.833C182.583 149.25 178.111 147.056 173.444 146.278L146.25 173.472C147.028 178.111 149.222 182.583 152.806 186.167L157.306 190.667C166.528 199.861 181.472 199.861 190.667 190.667C199.889 181.472 199.889 166.528 190.667 157.333L186.167 152.833ZM181.417 178.5C177.472 178.5 174.278 175.306 174.278 171.361C174.278 167.417 177.472 164.222 181.417 164.222C185.361 164.222 188.556 167.417 188.556 171.361C188.583 175.278 185.361 178.5 181.417 178.5Z" fill="white"/>
<path d="M119.722 193.722L69.0278 143.028L105 106.972L133.472 135.528L135.444 133.556L106.972 105L142.944 68.9444L193.722 119.722L170.278 143.167C172.167 143.222 174.028 143.472 175.833 143.917L200 119.722L146.083 65.8056L155.056 56.8056L143.083 44.8333L134.111 53.8333L80.2778 0L56.1389 24.1389C56.5833 25.9444 56.8333 27.8056 56.8889 29.6667L80.2778 6.27778L130.972 56.9722L95 93.0278L66.5278 64.4722L64.5556 66.4444L93.0556 95L57.0833 131.056L6.27778 80.2778L29.7222 56.8333C27.8333 56.7778 25.9722 56.5278 24.1667 56.0833L0 80.2778L53.9444 134.222L44.9722 143.222L56.9444 155.194L65.9167 146.194L119.722 200L143.861 175.861C143.417 174.056 143.167 172.194 143.111 170.333L119.722 193.722ZM143.083 48.7778L151.111 56.8056L144.083 63.8333L136.056 55.8056L143.083 48.7778ZM132.944 58.9444L140.972 66.9722L133.861 74.1111L125.833 66.0833L132.944 58.9444ZM123.861 68.0556L131.889 76.0833L124.222 83.75L116.194 75.7222L123.861 68.0556ZM114.25 77.6945L122.278 85.7222L114.611 93.3889L106.583 85.3611L114.25 77.6945ZM104.611 87.3333L112.639 95.3611L105 103.028L96.9722 95L104.611 87.3333ZM95 96.9722L103.028 105L95.3889 112.667L87.3611 104.639L95 96.9722ZM85.3889 106.611L93.4167 114.639L85.75 122.306L77.7222 114.278L85.3889 106.611ZM75.7778 116.25L83.8056 124.278L76.1389 131.944L68.1111 123.917L75.7778 116.25ZM56.9167 151.25L48.8889 143.194L55.9167 136.167L63.9444 144.194L56.9167 151.25ZM59.0278 133.028L66.1389 125.889L74.1667 133.917L67.0556 141.056L59.0278 133.028Z" fill="white"/>
</g>
</g>
<defs>
<clipPath id="clip0_2_303">
<rect width="200" height="200" fill="white"/>
</clipPath>
</defs>
</svg>
