<svg width="200" height="200" viewBox="0 0 200 200" fill="none" xmlns="http://www.w3.org/2000/svg">
<g clip-path="url(#clip0_2_291)">
<mask id="mask0_2_291" style="mask-type:luminance" maskUnits="userSpaceOnUse" x="0" y="0" width="200" height="200">
<path d="M200 0H0V200H200V0Z" fill="white"/>
</mask>
<g mask="url(#mask0_2_291)">
<path d="M12.2222 175.861L10.25 177.833L13.2778 180.833L0 194.111L5.88889 200L19.1667 186.722L22.1944 189.75L24.1667 187.778L12.2222 175.861ZM5.88889 196.083L3.91667 194.111L15.2222 182.806L17.1944 184.778L5.88889 196.083ZM189.75 22.1667L186.722 19.1667L200 5.88889L194.111 0L180.833 13.2778L177.806 10.25L175.861 12.2222L187.778 24.1389L189.75 22.1667ZM182.806 15.2222L194.111 3.91667L196.083 5.88889L184.778 17.1944L182.806 15.2222ZM22.8056 136.889L63.0833 177.167L56.8056 183.444L16.5278 143.167L22.8056 136.889ZM14.5556 145.167L54.8333 185.444L48.5556 191.722L8.27778 151.444L14.5556 145.167ZM6.27778 153.417L46.5556 193.694L40.3056 200L0 159.694L6.27778 153.417ZM159.083 52.8333L161.056 50.8611L149.139 38.9444L147.167 40.9167L150.194 43.9444L100 94.1111L49.8333 43.9167L52.8611 40.8889L50.8889 38.9167L38.9722 50.8333L40.9444 52.8056L43.9722 49.7778L94.1111 100L43.9167 150.167L40.8889 147.139L38.9167 149.111L50.8333 161.028L52.8056 159.056L49.7778 156.028L100 105.889L150.167 156.056L147.139 159.083L149.111 161.056L161.028 149.139L159.056 147.167L156.028 150.194L105.889 100L156.056 49.8333L159.083 52.8333ZM47.8611 154.111L45.8889 152.139L96.0556 101.972L98.0278 103.944L47.8611 154.111ZM152.139 154.111L45.8889 47.8611L47.8611 45.8889L154.111 152.139L152.139 154.111ZM103.917 98.0278L101.944 96.0556L152.111 45.8889L154.083 47.8611L103.917 98.0278ZM177.194 63.1111L136.917 22.8333L143.194 16.5556L183.472 56.8333L177.194 63.1111ZM185.444 54.8333L145.167 14.5556L151.444 8.27778L191.722 48.5556L185.444 54.8333ZM193.722 46.5833L153.444 6.30556L159.694 0L199.972 40.2778L193.722 46.5833ZM10.25 22.1667L12.2222 24.1389L24.1389 12.2222L22.1667 10.25L19.1667 13.2778L5.88889 0L0 5.88889L13.2778 19.1667L10.25 22.1667ZM3.91667 5.88889L5.88889 3.91667L17.1944 15.2222L15.2222 17.1944L3.91667 5.88889ZM189.75 177.833L187.778 175.861L175.861 187.778L177.833 189.75L180.861 186.722L194.111 200L200 194.111L186.722 180.833L189.75 177.833ZM196.083 194.111L194.111 196.083L182.806 184.778L184.778 182.806L196.083 194.111ZM16.5278 56.8333L56.8056 16.5556L63.0833 22.8333L22.8056 63.1111L16.5278 56.8333ZM8.27778 48.5556L48.5556 8.27778L54.8333 14.5556L14.5556 54.8333L8.27778 48.5556ZM0 40.3056L40.2778 0.0277778L46.5556 6.30556L6.27778 46.5833L0 40.3056ZM183.472 143.167L143.194 183.444L136.917 177.167L177.194 136.889L183.472 143.167ZM191.722 151.444L151.444 191.722L145.167 185.444L185.444 145.167L191.722 151.444ZM200 159.694L159.722 199.972L153.444 193.694L193.722 153.417L200 159.694Z" fill="white"/>
</g>
</g>
<defs>
<clipPath id="clip0_2_291">
<rect width="200" height="200" fill="white"/>
</clipPath>
</defs>
</svg>
