<svg width="200" height="200" viewBox="0 0 200 200" fill="none" xmlns="http://www.w3.org/2000/svg">
<g clip-path="url(#clip0_2_285)">
<mask id="mask0_2_285" style="mask-type:luminance" maskUnits="userSpaceOnUse" x="0" y="0" width="200" height="200">
<path d="M200 0H0V200H200V0Z" fill="white"/>
</mask>
<g mask="url(#mask0_2_285)">
<path d="M136.833 129.778C147.806 116.222 150.194 98.0556 144 82.5C147.028 79.6389 147.889 78.2222 149.139 75.3333C149.25 75.1111 149.333 74.8611 149.444 74.6111C149.722 74 150.417 73.2222 151.472 72.3611C162.611 93.0833 160.361 119.139 144.694 137.694L136.806 129.778H136.833ZM135.056 40.9444L160.25 24.5833L165.667 30L159.278 36.3889C158.694 36.9722 158.389 37.75 158.389 38.5556C158.389 39.3611 158.722 40.1389 159.278 40.7222C159.861 41.3056 160.639 41.6111 161.444 41.6111C162.25 41.6111 163.028 41.2778 163.611 40.7222L170 34.3056L175.417 39.7222L159.056 64.9167L158.278 65.25C152.528 67.6944 148.056 70.8889 146.944 73.4167C146.833 73.6944 146.722 73.9167 146.611 74.1667C145.25 77.25 144.694 78.25 139.444 82.8333C135.694 86.1111 131.472 89.4167 130.194 90.25L127.5 92.0278L126.167 89.0833C124.5 85.4445 122.639 82.6945 120.25 80.3333L119.611 79.6944C117.278 77.3333 114.5 75.4722 110.889 73.8056L107.944 72.4722L109.722 69.7778C110.556 68.5278 113.861 64.3056 117.139 60.5278C121.722 55.3056 122.722 54.7222 125.806 53.3611C126.028 53.25 126.278 53.1389 126.556 53.0278C129.083 51.8889 132.278 47.4444 134.722 41.6944L135.056 40.9444ZM120.917 77.1111L124.694 73.3333C121.917 70.75 118.778 68.6389 115.333 67.0278C113.694 69.0556 112.472 70.6945 112.056 71.3056C115.75 73 118.583 74.8889 120.917 77.1111ZM132.972 84.6667C131.361 81.2222 129.25 78.0833 126.667 75.3056L122.889 79.0833C125.111 81.4167 127 84.25 128.694 87.9445C129.306 87.5278 130.972 86.2778 132.972 84.6667ZM137.278 42.8056C135.472 47.0556 131.917 53.7222 127.694 55.6111C124.389 57.0833 124 56.9722 119.25 62.3889C118.917 62.75 118.611 63.1389 118.278 63.5C121.778 65.25 125 67.5 127.861 70.1944L135.194 62.8611L137.167 64.8333L129.833 72.1667C132.528 75.0278 134.75 78.25 136.528 81.75C136.917 81.4167 137.278 81.1111 137.639 80.7778C143.056 76.0278 142.944 75.6389 144.417 72.3333C146.306 68.1111 152.944 64.5556 157.222 62.75L171.889 40.1667L170.028 38.3056L165.583 42.75C164.444 43.8889 162.944 44.4722 161.444 44.4722C159.944 44.4722 158.444 43.8889 157.306 42.75C155.028 40.4722 155.028 36.75 157.306 34.4722L161.75 30.0278L159.889 28.1667L137.278 42.8056ZM124.694 50.8333C124.917 50.7222 125.167 50.6389 125.417 50.5278C126.028 50.25 126.806 49.5556 127.667 48.5C106.944 37.3333 80.9167 39.5833 62.3333 55.2778L70.2222 63.1667C83.7778 52.1944 101.944 49.8056 117.5 56C120.389 52.9722 121.806 52.1111 124.694 50.8333ZM200 100L163.389 63.3889L160.917 67.1667L193.75 100L150.417 143.333L153.556 146.472L200.028 100H200ZM0 100L36.6111 136.611L39.0833 132.833H39.1111L6.27778 100L49.6111 56.6667L46.4722 53.5278L0 100ZM64.9444 159.056L39.75 175.417L34.3333 170L40.7222 163.611C41.3056 163.028 41.6111 162.25 41.6111 161.444C41.6111 160.639 41.2778 159.861 40.7222 159.278C40.1389 158.694 39.3611 158.389 38.5556 158.389C37.75 158.389 36.9722 158.694 36.3889 159.278L30 165.694L24.5833 160.278L40.9444 135.083L41.7222 134.75C47.4722 132.306 51.9444 129.111 53.0556 126.583C53.1667 126.306 53.2778 126.083 53.3889 125.833C54.75 122.75 55.3056 121.75 60.5556 117.167C64.3056 113.889 68.5278 110.583 69.8056 109.75L72.5 107.972L73.8333 110.917C75.5 114.556 77.3611 117.306 79.75 119.667L80.3889 120.306C82.7222 122.667 85.5 124.528 89.1111 126.194L92.0556 127.528L90.2778 130.222C89.4444 131.472 86.1389 135.694 82.8611 139.472C78.2778 144.694 77.2778 145.278 74.1944 146.639C73.9722 146.75 73.7222 146.861 73.4444 146.972C70.9167 148.111 67.7222 152.556 65.2778 158.306L64.9444 159.056ZM79.0833 122.889L75.2778 126.694C78.0556 129.278 81.1945 131.389 84.6389 133C86.2778 130.972 87.5 129.333 87.9167 128.722C84.25 127 81.4167 125.111 79.0833 122.889ZM67.0278 115.333C68.6389 118.778 70.75 121.917 73.3333 124.694L77.1111 120.917C74.8889 118.583 73 115.75 71.3056 112.056C70.6945 112.472 69.0278 113.722 67.0278 115.333ZM62.7222 157.194C64.5278 152.944 68.0833 146.278 72.3056 144.389C75.6111 142.917 76 143.028 80.75 137.611C81.0833 137.25 81.3889 136.861 81.7222 136.5C78.2222 134.75 75 132.5 72.1389 129.806L64.8056 137.139L62.8333 135.167L70.1667 127.833C67.4722 124.972 65.25 121.75 63.4722 118.25C63.0833 118.583 62.7222 118.889 62.3611 119.222C56.9444 123.972 57.0556 124.361 55.5833 127.667C53.6944 131.889 47.0556 135.444 42.7778 137.25L28.1111 159.833L29.9722 161.694L34.4167 157.25C35.5556 156.111 37.0556 155.528 38.5556 155.528C40.0556 155.528 41.5556 156.111 42.6944 157.25C44.9722 159.528 44.9722 163.25 42.6944 165.528L38.25 169.972L40.1111 171.833L62.7222 157.194ZM100 193.722L67.1944 160.917L63.4167 163.417L100 200L146.472 153.528L143.333 150.389L100 193.722ZM100 6.27778L132.806 39.0833C132.806 39.0556 136.583 36.5833 136.583 36.5833L100 0L53.5278 46.4722L56.6667 49.6111L100 6.27778ZM55.2778 62.3333C39.6111 80.9167 37.3333 106.944 48.5 127.667H48.5278C49.5833 126.806 50.2778 126.028 50.5556 125.417C50.6667 125.167 50.7778 124.917 50.8611 124.694C52.1389 121.806 52.9722 120.389 56 117.528C49.8056 101.972 52.1944 83.7778 63.1667 70.25L55.2778 62.3333ZM75.3056 149.167C75.0833 149.278 74.8333 149.361 74.5833 149.472C73.9722 149.75 73.1944 150.444 72.3333 151.5C93.0556 162.667 119.083 160.417 137.667 144.75L129.778 136.861C116.25 147.833 98.0556 150.222 82.5 144.028C79.6111 147.028 78.1944 147.889 75.3056 149.167ZM108.639 105.5L181.583 178.444L178.444 181.583L105.5 108.639C101.528 111.167 96.2222 110.722 92.75 107.25C89.2778 103.778 88.8333 98.4722 91.3611 94.5L18.4167 21.5833L21.5556 18.4444L94.5 91.3889C98.4722 88.8611 103.778 89.3056 107.25 92.7778C110.722 96.25 111.167 101.528 108.639 105.5ZM96.5278 93.3889L106.611 103.472C108.083 100.667 107.639 97.0833 105.278 94.7222C102.917 92.3611 99.3611 91.9167 96.5278 93.3889ZM103.472 106.611L93.3889 96.5278C91.9167 99.3333 92.3611 102.917 94.7222 105.278C97.0833 107.639 100.639 108.083 103.472 106.611Z" fill="white"/>
</g>
</g>
<defs>
<clipPath id="clip0_2_285">
<rect width="200" height="200" fill="white"/>
</clipPath>
</defs>
</svg>
